<?xml version="1.0" encoding="utf-8"?>
<!-- Generator: Adobe Illustrator 22.0.1, SVG Export Plug-In . SVG Version: 6.00 Build 0)  -->
<svg version="1.1" xmlns="http://www.w3.org/2000/svg" xmlns:xlink="http://www.w3.org/1999/xlink" x="0px" y="0px"
	 viewBox="0 0 489.2 138.9" style="enable-background:new 0 0 489.2 138.9;" xml:space="preserve">
<style type="text/css">
	.st0{display:none;}
	.st1{display:inline;opacity:0.11;}
	.st2{fill:#FF0000;}
	.st3{fill:#FFFFFF;}
	.st4{fill:#282828;}
	.st5{enable-background:new    ;}
	.st6{fill:#F61B49;}
</style>
<g id="Layer_1">
	<g id="Layer_1_1_" class="st0">
		<g class="st1">
			<g>
				<path class="st2" d="M153.4,22.4c-1.8-6.7-7.1-12-13.8-13.8c-12.1-3.3-60.8-3.3-60.8-3.3S30.1,5.4,18,8.7
					c-6.7,1.8-12,7.1-13.8,13.8C1,34.6,1,59.9,1,59.9s0,25.3,3.3,37.5c1.8,6.7,7.1,12,13.8,13.8c12.1,3.3,60.8,3.3,60.8,3.3
					s48.7,0,60.8-3.3c6.7-1.8,12-7.1,13.8-13.8c3.3-12.1,3.3-37.5,3.3-37.5S156.7,34.6,153.4,22.4z"/>
				<polygon class="st3" points="63.3,83.3 103.7,59.9 63.3,36.5 				"/>
			</g>
			<g>
				<g>
					<path class="st4" d="M227,104.6c-3.1-2.1-5.3-5.3-6.6-9.7c-1.3-4.4-1.9-10.2-1.9-17.5v-9.9c0-7.3,0.7-13.3,2.2-17.7
						c1.5-4.5,3.8-7.7,7-9.7S235,37,240.1,37c5,0,9.1,1,12.1,3.1s5.3,5.3,6.7,9.7s2.1,10.3,2.1,17.6v9.9c0,7.3-0.7,13.1-2.1,17.5
						s-3.6,7.6-6.7,9.7c-3.1,2-7.3,3.1-12.5,3.1C234.3,107.7,230.1,106.6,227,104.6z M244.3,93.9c0.9-2.2,1.3-5.9,1.3-10.9V61.7
						c0-4.9-0.4-8.5-1.3-10.7c-0.9-2.3-2.4-3.4-4.5-3.4s-3.5,1.1-4.4,3.4c-0.9,2.3-1.3,5.8-1.3,10.7V83c0,5,0.4,8.7,1.2,10.9
						c0.8,2.2,2.3,3.3,4.5,3.3C241.9,97.2,243.4,96.1,244.3,93.9z"/>
					<path class="st4" d="M463.5,77.6v3.5c0,4.4,0.1,7.7,0.4,9.9c0.3,2.2,0.8,3.8,1.6,4.8c0.8,1,2.1,1.5,3.8,1.5
						c2.3,0,3.9-0.9,4.7-2.7c0.9-1.8,1.3-4.8,1.4-8.9l13.3,0.8c0.1,0.6,0.1,1.4,0.1,2.4c0,6.3-1.7,11-5.2,14.1s-8.3,4.7-14.6,4.7
						c-7.6,0-12.9-2.4-15.9-7.1s-4.6-12.1-4.6-22V66.5c0-10.2,1.6-17.7,4.7-22.4c3.2-4.7,8.6-7.1,16.2-7.1c5.3,0,9.3,1,12.1,2.9
						c2.8,1.9,4.8,4.9,6,9s1.7,9.7,1.7,16.9v11.7L463.5,77.6L463.5,77.6z M465.5,48.8c-0.8,1-1.3,2.5-1.6,4.7
						c-0.3,2.2-0.4,5.5-0.4,10v4.9h11.2v-4.9c0-4.4-0.1-7.7-0.4-10s-0.8-3.9-1.6-4.8c-0.8-0.9-2-1.4-3.6-1.4
						C467.4,47.4,466.2,47.9,465.5,48.8z"/>
					<path class="st4" d="M189.6,76.3l-17.5-63.2h15.3l6.1,28.6c1.6,7.1,2.7,13.1,3.5,18h0.4c0.5-3.6,1.7-9.5,3.5-17.9l6.3-28.7
						h15.3l-17.7,63.1v30.3h-15.1V76.3H189.6z"/>
					<path class="st4" d="M310.6,38.3v68.3h-12l-1.3-8.4H297c-3.3,6.3-8.2,9.5-14.7,9.5c-4.5,0-7.9-1.5-10-4.5
						c-2.2-3-3.2-7.6-3.2-13.9v-51h15.4v50.1c0,3,0.3,5.2,1,6.5s1.8,1.9,3.3,1.9c1.3,0,2.6-0.4,3.8-1.2c1.2-0.8,2.1-1.9,2.7-3.1
						V38.3H310.6z"/>
					<path class="st4" d="M389.5,38.3v68.3h-12l-1.3-8.4h-0.3c-3.3,6.3-8.2,9.5-14.7,9.5c-4.5,0-7.9-1.5-10-4.5
						c-2.2-3-3.2-7.6-3.2-13.9v-51h15.4v50.1c0,3,0.3,5.2,1,6.5s1.8,1.9,3.3,1.9c1.3,0,2.6-0.4,3.8-1.2c1.2-0.8,2.1-1.9,2.7-3.1
						V38.3H389.5z"/>
					<path class="st4" d="M352.4,25.5h-15.3v81.1h-15V25.5h-15.3V13.1h45.5L352.4,25.5L352.4,25.5z"/>
					<path class="st4" d="M440.3,49.2c-0.9-4.3-2.4-7.4-4.5-9.4c-2.1-1.9-4.9-2.9-8.6-2.9c-2.8,0-5.5,0.8-7.9,2.4
						c-2.5,1.6-4.3,3.7-5.7,6.3h-0.1v-36h-14.8v96.9h12.7l1.6-6.5h0.3c1.2,2.3,3,4.1,5.3,5.5c2.4,1.3,5,2,7.9,2
						c5.2,0,9-2.4,11.5-7.2c2.4-4.8,3.7-12.3,3.7-22.4V67.1C441.7,59.5,441.2,53.5,440.3,49.2z M426.2,77.1c0,5-0.2,8.9-0.6,11.7
						c-0.4,2.8-1.1,4.8-2.1,6s-2.3,1.8-3.9,1.8c-1.3,0-2.4-0.3-3.5-0.9s-1.9-1.5-2.6-2.7V54.2c0.5-1.9,1.4-3.4,2.7-4.6
						c1.3-1.2,2.6-1.8,4.1-1.8c1.6,0,2.8,0.6,3.6,1.8c0.9,1.2,1.4,3.3,1.8,6.2c0.3,2.9,0.5,7,0.5,12.4V77.1z"/>
				</g>
			</g>
		</g>
	</g>
	<g class="st5">
		<path class="st3" d="M151.9,106.8V22.1h14v30.2h0.3c1.5-1.9,3.2-3.5,5.3-4.7c2.1-1.2,4.7-1.8,7.9-1.8c1.7,0,3.5,0.3,5.2,0.8
			c1.7,0.5,3.3,1.4,4.7,2.6c1.4,1.2,2.5,2.7,3.3,4.6c0.8,1.9,1.2,4.1,1.2,6.8v46.2h-14V65c0-2.2-0.6-4-1.8-5.2
			c-1.2-1.3-2.9-1.9-5.1-1.9c-2.7,0-4.5,0.7-5.5,2.1c-1,1.4-1.5,3.5-1.5,6.2v40.5H151.9z"/>
		<path class="st3" d="M204.1,66.7c0-2.5,0.2-4.7,0.5-6.8c0.4-2.1,1.1-3.9,2.1-5.5c1.6-2.6,4-4.7,7.1-6.3c3.1-1.6,6.8-2.4,11.2-2.4
			s8.1,0.8,11.2,2.4c3.1,1.6,5.4,3.7,7.1,6.3c1,1.6,1.7,3.4,2.1,5.5c0.4,2.1,0.5,4.3,0.5,6.8v19.9c0,2.5-0.2,4.7-0.5,6.8
			c-0.4,2.1-1.1,3.9-2.1,5.5c-1.6,2.6-4,4.7-7.1,6.3c-3.1,1.6-6.8,2.4-11.2,2.4s-8.1-0.8-11.2-2.4c-3.1-1.6-5.4-3.7-7.1-6.3
			c-1-1.6-1.7-3.4-2.1-5.5c-0.4-2.1-0.5-4.3-0.5-6.8V66.7z M218.1,88.5c0,2.3,0.6,4,1.9,5.2c1.2,1.1,2.9,1.7,5,1.7
			c2.1,0,3.8-0.6,5-1.7c1.2-1.1,1.9-2.9,1.9-5.2V64.8c0-2.3-0.6-4-1.9-5.2c-1.2-1.1-2.9-1.7-5-1.7c-2.1,0-3.8,0.6-5,1.7
			c-1.2,1.1-1.9,2.9-1.9,5.2V88.5z"/>
		<path class="st3" d="M254.9,66.7c0-2.5,0.2-4.7,0.5-6.8c0.4-2.1,1.1-3.9,2.1-5.5c1.6-2.6,4-4.7,7.1-6.3c3.1-1.6,6.8-2.4,11.2-2.4
			s8.1,0.8,11.2,2.4c3.1,1.6,5.4,3.7,7.1,6.3c1,1.6,1.7,3.4,2.1,5.5c0.4,2.1,0.5,4.3,0.5,6.8v19.9c0,2.5-0.2,4.7-0.5,6.8
			c-0.4,2.1-1.1,3.9-2.1,5.5c-1.6,2.6-4,4.7-7.1,6.3c-3.1,1.6-6.8,2.4-11.2,2.4s-8.1-0.8-11.2-2.4c-3.1-1.6-5.4-3.7-7.1-6.3
			c-1-1.6-1.7-3.4-2.1-5.5c-0.4-2.1-0.5-4.3-0.5-6.8V66.7z M268.9,88.5c0,2.3,0.6,4,1.9,5.2c1.2,1.1,2.9,1.7,5,1.7
			c2.1,0,3.8-0.6,5-1.7c1.2-1.1,1.9-2.9,1.9-5.2V64.8c0-2.3-0.6-4-1.9-5.2c-1.2-1.1-2.9-1.7-5-1.7c-2.1,0-3.8,0.6-5,1.7
			c-1.2,1.1-1.9,2.9-1.9,5.2V88.5z"/>
		<path class="st3" d="M306.9,131.1V46.5h14V52c1.7-1.7,3.5-3.2,5.4-4.4c1.8-1.2,4.5-1.8,8-1.8c5.8,0,9.8,1.9,12.2,5.7
			c0.8,1.3,1.4,3,1.8,5c0.4,2,0.5,4.6,0.5,8v22.9c0,4.4-0.1,7.6-0.4,9.6c-0.5,4-2.7,6.9-6.3,8.9c-1.8,1-4.5,1.5-8,1.5
			c-2.7,0-5.2-0.5-7.3-1.6c-2.2-1.1-4-2.6-5.6-4.6h-0.3v29.8H306.9z M334.8,66.1c0-2.5-0.5-4.4-1.6-5.9c-1.1-1.5-2.8-2.3-5.2-2.3
			c-2.1,0-3.8,0.7-5.1,2.1c-1.3,1.4-1.9,3.2-1.9,5.4v23.4c0,1.9,0.7,3.5,2,4.7c1.3,1.2,3,1.8,5,1.8c2.7,0,4.5-0.7,5.4-2.1
			s1.4-3.1,1.4-5V66.1z"/>
		<path class="st3" d="M360.3,106.8V22.1h14V52h0.3c1.6-2,3.4-3.5,5.6-4.6c2.1-1.1,4.6-1.6,7.3-1.6c3.4,0,6,0.5,7.9,1.5
			c1.9,1,3.4,2.3,4.6,3.9c0.9,1.3,1.5,2.9,1.8,5c0.3,2.1,0.4,5.3,0.4,9.6v22.9c0,3.3-0.2,6-0.5,8c-0.4,2-1,3.6-1.8,5
			c-2.4,3.8-6.5,5.7-12.2,5.7c-3.5,0-6.1-0.6-8-1.8c-1.8-1.2-3.6-2.7-5.4-4.4v5.5H360.3z M388.2,65c0-1.9-0.5-3.6-1.4-5
			s-2.8-2.1-5.4-2.1c-2,0-3.7,0.6-5,1.8c-1.3,1.2-2,2.8-2,4.7v23.4c0,2.2,0.6,4,1.9,5.4c1.3,1.4,3,2.1,5.1,2.1
			c2.4,0,4.1-0.8,5.2-2.3s1.6-3.5,1.6-5.9V65z"/>
		<path class="st3" d="M412.5,66.7c0-2.5,0.2-4.7,0.5-6.8c0.4-2.1,1.1-3.9,2.1-5.5c1.6-2.6,4-4.7,7.1-6.3c3.1-1.6,6.8-2.4,11.2-2.4
			c4.4,0,8.1,0.8,11.2,2.4c3.1,1.6,5.4,3.7,7.1,6.3c1,1.6,1.7,3.4,2.1,5.5c0.4,2.1,0.5,4.3,0.5,6.8v19.9c0,2.5-0.2,4.7-0.5,6.8
			c-0.4,2.1-1.1,3.9-2.1,5.5c-1.6,2.6-4,4.7-7.1,6.3c-3.1,1.6-6.8,2.4-11.2,2.4c-4.4,0-8.1-0.8-11.2-2.4c-3.1-1.6-5.4-3.7-7.1-6.3
			c-1-1.6-1.7-3.4-2.1-5.5c-0.4-2.1-0.5-4.3-0.5-6.8V66.7z M426.5,88.5c0,2.3,0.6,4,1.9,5.2c1.2,1.1,2.9,1.7,5,1.7
			c2.1,0,3.8-0.6,5-1.7c1.2-1.1,1.9-2.9,1.9-5.2V64.8c0-2.3-0.6-4-1.9-5.2c-1.2-1.1-2.9-1.7-5-1.7c-2.1,0-3.8,0.6-5,1.7
			c-1.2,1.1-1.9,2.9-1.9,5.2V88.5z"/>
		<path class="st3" d="M464.5,46.5V28.2h14v18.3h8.6V56h-8.6v33.4c0,1.4,0.2,2.5,0.5,3.3c0.3,0.8,0.8,1.4,1.6,1.8
			c0.7,0.4,1.6,0.6,2.7,0.7c1.1,0.1,2.4,0.1,3.9,0.1v11.4h-5.8c-3.2,0-5.9-0.4-8-1.3c-2.2-0.9-3.9-2-5.1-3.3
			c-1.3-1.3-2.2-2.9-2.8-4.6c-0.6-1.7-0.9-3.3-0.9-4.9V56h-7v-9.5H464.5z"/>
	</g>
	<g id="Layer_2_1_">
		<g>
			<path class="st3" d="M60.3,125.9L60.3,125.9C27.5,125.9,1,99.3,1,66.6l0,0C1,33.8,27.5,7.3,60.3,7.3l0,0
				c32.7,0,59.3,26.5,59.3,59.3l0,0C119.6,99.3,93,125.9,60.3,125.9z"/>
			<g>
				<path class="st6" d="M66,64.7c-1.3,0-2.6,0-3.9,0c0-3.4,0-6.8,0-10.3c1.5-0.1,3-0.1,4.5-0.2c-0.2,1.7-0.4,3.6-0.5,5.7
					C66,61.7,66,63.2,66,64.7z"/>
			</g>
			<g>
				<path class="st6" d="M66.1,68.4c-1.3,0-2.6,0-3.9,0c0,3.4,0,6.8,0,10.3c1.5,0.1,3,0.1,4.5,0.2c-0.2-1.7-0.4-3.6-0.5-5.7
					C66.1,71.4,66.1,69.8,66.1,68.4z"/>
			</g>
			<g>
				<path class="st6" d="M53.8,68.4c1.3,0,2.6,0,3.9,0c0,3.4,0,6.8,0,10.3c-1.5,0.1-3,0.1-4.5,0.2c0.2-1.7,0.4-3.6,0.5-5.7
					C53.7,71.4,53.8,69.8,53.8,68.4z"/>
			</g>
			<g>
				<path class="st6" d="M70.7,64.7c6.3,0,12.6,0,18.9,0l0,0c0-18,0.6-20.5-1.1-23c-1.1-1.6-3.8-4.3-12-4.4
					C74.8,42.1,73,48,71.9,54.8C71.3,58.3,70.9,61.6,70.7,64.7z"/>
			</g>
			<g>
				<path class="st6" d="M70.7,68.4c6.3,0,12.6,0,18.9,0l0,0c0,18,0.6,20.5-1.1,23c-1.1,1.6-3.8,4.3-12,4.4
					C74.8,90.9,73,85,71.9,78.2C71.3,74.7,70.9,71.4,70.7,68.4z"/>
			</g>
			<g>
				<path class="st6" d="M49.8,64.7c-6.3,0-12.6,0-18.9,0l0,0c0-18-0.6-20.5,1.1-23c1.1-1.6,3.8-4.3,12-4.4
					c1.8,4.9,3.6,10.8,4.7,17.6C49.3,58.3,49.6,61.6,49.8,64.7z"/>
			</g>
			<g>
				<path class="st6" d="M49.8,68.4c-6.3,0-12.6,0-18.9,0l0,0c0,18-0.6,20.5,1.1,23c1.1,1.6,3.8,4.3,12,4.4
					c1.8-4.9,3.6-10.8,4.7-17.6C49.2,74.7,49.6,71.4,49.8,68.4z"/>
			</g>
			<g>
				<path class="st6" d="M53.8,64.7c1.3,0,2.6,0,3.9,0c0-3.4,0-6.8,0-10.3c-1.5-0.1-3-0.1-4.5-0.2c0.2,1.7,0.4,3.6,0.5,5.7
					C53.7,61.7,53.8,63.2,53.8,64.7z"/>
			</g>
		</g>
	</g>
</g>
<g id="Layer_2">
</g>
</svg>
