<?xml version="1.0" encoding="utf-8"?>
<!-- Generator: Adobe Illustrator 22.0.1, SVG Export Plug-In . SVG Version: 6.00 Build 0)  -->
<svg version="1.1" xmlns="http://www.w3.org/2000/svg" xmlns:xlink="http://www.w3.org/1999/xlink" x="0px" y="0px"
	 viewBox="0 0 1024 1024" style="enable-background:new 0 0 1024 1024;" xml:space="preserve">
<style type="text/css">
	.st0{display:none;}
	.st1{display:inline;fill:url(#SVGID_1_);}
	.st2{fill:#FFFFFF;}
	.st3{display:inline;fill:#FFFFFF;}
	.st4{display:inline;}
	.st5{fill:url(#SVGID_2_);}
	.st6{fill:url(#SVGID_3_);}
	.st7{fill:url(#SVGID_4_);}
	.st8{fill:url(#SVGID_5_);}
	.st9{fill:url(#SVGID_6_);}
	.st10{fill:url(#SVGID_7_);}
	.st11{fill:url(#SVGID_8_);}
	.st12{fill:url(#SVGID_9_);}
</style>
<g id="W_on_Orange">
	<g id="background" class="st0">
		<linearGradient id="SVGID_1_" gradientUnits="userSpaceOnUse" x1="91.1718" y1="82.2644" x2="882.7392" y2="890.5864">
			<stop  offset="0" style="stop-color:#EE4649"/>
			<stop  offset="1" style="stop-color:#F46647"/>
		</linearGradient>
		<rect class="st1" width="1024" height="1024"/>
	</g>
	<g id="logo">
		<g>
			<path class="st2" d="M565.7,494.5c-12.1,0-24.2,0-36.3,0c0-32.1,0-64.2,0-96.3c14-0.6,28-1.1,41.9-1.7c-2,15.9-3.7,34-4.7,53.9
				C565.8,466.3,565.6,481,565.7,494.5z"/>
		</g>
		<g>
			<path class="st2" d="M566.5,529.5c-12.1,0-24.2,0-36.3,0c0,32.1,0,64.2,0,96.3c14,0.6,28,1.1,41.9,1.7c-2-15.9-3.7-34-4.7-53.9
				C566.6,557.6,566.4,542.9,566.5,529.5z"/>
		</g>
		<g>
			<path class="st2" d="M450.9,529.5c12.1,0,24.2,0,36.3,0c0,32.1,0,64.2,0,96.3c-14,0.6-28,1.1-41.9,1.7c2-15.9,3.7-34,4.7-53.9
				C450.8,557.6,451,542.9,450.9,529.5z"/>
		</g>
		<g>
			<path class="st2" d="M610.3,494.3c59.3,0,118.5,0,177.8,0c0,0,0-0.1,0-0.1c0-169.3,5.4-192.6-10.2-215.8
				c-10.1-15-36-40.3-112.6-41.7c-17.3,46-33.8,101.5-44.4,165.3C615.3,434.9,612.1,465.8,610.3,494.3z"/>
		</g>
		<g>
			<path class="st2" d="M610.3,529.5c59.3,0,118.5,0,177.8,0c0,0,0,0.1,0,0.1c0,169.3,5.4,192.6-10.2,215.8
				c-10.1,15-36,40.3-112.6,41.7c-17.3-46-33.8-101.5-44.4-165.3C615.3,588.9,612.1,558,610.3,529.5z"/>
		</g>
		<g>
			<path class="st2" d="M413.6,494.5c-59.3,0-118.5,0-177.8,0c0,0,0-0.1,0-0.1c0-169.3-5.4-192.6,10.2-215.8
				c10.1-15,36-40.3,112.6-41.7c17.3,46,33.8,101.5,44.4,165.3C408.6,435,411.8,465.9,413.6,494.5z"/>
		</g>
		<g>
			<path class="st2" d="M413.4,529.5c-59.3,0-118.5,0-177.8,0c0,0,0,0.1,0,0.1c0,169.3-5.4,192.6,10.2,215.8
				c10.1,15,36,40.3,112.6,41.7c17.3-46,33.8-101.5,44.4-165.3C408.5,588.9,411.7,558,413.4,529.5z"/>
		</g>
		<g>
			<path class="st2" d="M450.9,494.3c12.1,0,24.2,0,36.3,0c0-32.1,0-64.2,0-96.3c-14-0.6-28-1.1-41.9-1.7c2,15.9,3.7,34,4.7,53.9
				C450.8,466.2,451,480.9,450.9,494.3z"/>
		</g>
	</g>
</g>
<g id="Orange_on_W" class="st0">
	<rect class="st3" width="1024" height="1024"/>
	<g class="st4">
		<linearGradient id="SVGID_2_" gradientUnits="userSpaceOnUse" x1="543.4031" y1="415.4918" x2="604.6062" y2="415.4918">
			<stop  offset="0" style="stop-color:#EE4649"/>
			<stop  offset="1" style="stop-color:#F46647"/>
		</linearGradient>
		<path class="st5" d="M596.4,487c-17.7,0-35.4,0-53,0c0-46.8,0-93.7,0-140.5c20.4-0.8,40.8-1.6,61.2-2.4
			c-2.9,23.2-5.3,49.6-6.8,78.7C596.6,445.8,596.3,467.4,596.4,487z"/>
	</g>
	<g class="st4">
		<linearGradient id="SVGID_3_" gradientUnits="userSpaceOnUse" x1="543.4031" y1="608.0562" x2="604.6062" y2="608.0562">
			<stop  offset="0" style="stop-color:#EE4649"/>
			<stop  offset="1" style="stop-color:#F46647"/>
		</linearGradient>
		<path class="st6" d="M596.4,536.6c-17.7,0-35.4,0-53,0c0,46.8,0,93.7,0,140.5c20.4,0.8,40.8,1.6,61.2,2.4
			c-2.9-23.2-5.3-49.6-6.8-78.7C596.6,577.7,596.3,556.2,596.4,536.6z"/>
	</g>
	<g class="st4">
		<linearGradient id="SVGID_4_" gradientUnits="userSpaceOnUse" x1="420.8901" y1="608.0562" x2="482.0932" y2="608.0562">
			<stop  offset="0" style="stop-color:#EE4649"/>
			<stop  offset="1" style="stop-color:#F46647"/>
		</linearGradient>
		<path class="st7" d="M429.1,536.6c17.7,0,35.4,0,53,0c0,46.8,0,93.7,0,140.5c-20.4,0.8-40.8,1.6-61.2,2.4
			c2.9-23.2,5.3-49.6,6.8-78.7C428.8,577.7,429.2,556.2,429.1,536.6z"/>
	</g>
	<g class="st4">
		<linearGradient id="SVGID_5_" gradientUnits="userSpaceOnUse" x1="640.0854" y1="298.9791" x2="900.904" y2="298.9791">
			<stop  offset="0" style="stop-color:#EE4649"/>
			<stop  offset="1" style="stop-color:#F46647"/>
		</linearGradient>
		<path class="st8" d="M640.1,487c86.5,0,173,0,259.5,0c0,0,0-0.2,0-0.2c0-247.1,7.9-281.1-14.9-314.9
			C869.9,150,832.1,113,720.2,111c-25.2,67.1-49.3,148.1-64.9,241.4C647.4,400.2,642.6,445.3,640.1,487z"/>
	</g>
	<g class="st4">
		<linearGradient id="SVGID_6_" gradientUnits="userSpaceOnUse" x1="640.0854" y1="724.569" x2="900.904" y2="724.569">
			<stop  offset="0" style="stop-color:#EE4649"/>
			<stop  offset="1" style="stop-color:#F46647"/>
		</linearGradient>
		<path class="st9" d="M640.1,536.6c86.5,0,173,0,259.5,0c0,0,0,0.2,0,0.2c0,247.1,7.9,281.1-14.9,314.9
			c-14.7,21.9-52.5,58.8-164.4,60.9c-25.2-67.1-49.3-148.1-64.9-241.4C647.4,623.4,642.6,578.3,640.1,536.6z"/>
	</g>
	<g class="st4">
		<linearGradient id="SVGID_7_" gradientUnits="userSpaceOnUse" x1="123.1326" y1="298.9791" x2="383.9513" y2="298.9791">
			<stop  offset="0" style="stop-color:#EE4649"/>
			<stop  offset="1" style="stop-color:#F46647"/>
		</linearGradient>
		<path class="st10" d="M384,487c-86.5,0-173,0-259.5,0c0,0,0-0.2,0-0.2c0-247.1-7.9-281.1,14.9-314.9
			C154.1,150,191.9,113,303.8,111c25.2,67.1,49.3,148.1,64.9,241.4C376.7,400.2,381.4,445.3,384,487z"/>
	</g>
	<g class="st4">
		<linearGradient id="SVGID_8_" gradientUnits="userSpaceOnUse" x1="124.5924" y1="724.569" x2="385.411" y2="724.569">
			<stop  offset="0" style="stop-color:#EE4649"/>
			<stop  offset="1" style="stop-color:#F46647"/>
		</linearGradient>
		<path class="st11" d="M385.4,536.6c-86.5,0-173,0-259.5,0c0,0,0,0.2,0,0.2c0,247.1-7.9,281.1,14.9,314.9
			c14.7,21.9,52.5,58.8,164.4,60.9c25.2-67.1,49.3-148.1,64.9-241.4C378.1,623.4,382.9,578.3,385.4,536.6z"/>
	</g>
	<g class="st4">
		<linearGradient id="SVGID_9_" gradientUnits="userSpaceOnUse" x1="419.4304" y1="415.4918" x2="480.6335" y2="415.4918">
			<stop  offset="0" style="stop-color:#EE4649"/>
			<stop  offset="1" style="stop-color:#F46647"/>
		</linearGradient>
		<path class="st12" d="M427.6,487c17.7,0,35.4,0,53,0c0-46.8,0-93.7,0-140.5c-20.4-0.8-40.8-1.6-61.2-2.4
			c2.9,23.2,5.3,49.6,6.8,78.7C427.4,445.8,427.7,467.4,427.6,487z"/>
	</g>
</g>
</svg>
