<?xml version="1.0" encoding="UTF-8" standalone="no"?>
<svg width="500px" height="500px" viewBox="0 0 500 500" version="1.1" xmlns="http://www.w3.org/2000/svg" xmlns:xlink="http://www.w3.org/1999/xlink">
    <!-- Generator: Sketch 39.1 (31720) - http://www.bohemiancoding.com/sketch -->
    <title>DAL</title>
    <desc>Created with Sketch.</desc>
    <defs>
        <path d="M26.5742368,39.7306077 C26.5790406,39.6676672 26.5834961,39.600088 26.5876399,39.5279458 L26.5876399,12.6338457 C26.1340052,8.26374914 25.2440637,3.99042874 23.6279082,0.352732904 L1.97013327,0.352732904 C1.15671811,3.21931682 0.604099318,6.90276111 0.486573427,11.6306637 C0.439458042,13.0360035 0.285262238,14.2400911 0.0513986014,16.1198722 C18.6471942,-26.6254077 26.2725297,37.0288052 26.5586854,39.7306077 L26.5742368,39.7306077 L26.5742368,39.7306077 Z" id="path-1"></path>
    </defs>
    <g id="NBA" stroke="none" stroke-width="1" fill="none" fill-rule="evenodd">
        <g id="DAL">
            <g id="DMavericks_P_pms" transform="translate(5.000000, 6.000000)">
                <g id="Group-5">
                    <path d="M444.937133,388.91172 C446.188689,386.951438 446.804615,382.950373 446.804615,382.950373 C446.857727,381.632385 447.848007,381.030342 447.848007,381.030342 C451.235175,379.210508 452.399353,377.972165 452.553549,377.771769 C476.043566,341.415347 489.62993,298.388485 489.62993,252.25035 C489.62993,203.583289 474.511031,158.37434 448.611276,120.794133 C447.192675,119.335697 443.852622,117.374559 443.852622,117.374559 C442.628479,116.906968 442.386906,115.782525 442.386906,115.782525 C441.711014,111.641012 440.834668,110.142326 440.834668,110.142326 C419.786941,82.9655727 392.822378,60.3782259 361.842727,44.1470228 C356.314808,41.6574904 351.33514,41.3971471 351.33514,41.3971471 C350.218077,41.4305464 349.682675,40.5407548 349.682675,40.5407548 C347.848601,37.9715779 342.354091,35.1677496 340.293007,34.1777601 C311.669126,22.5693625 280.247448,16.1395692 247.293234,16.1395692 C237.294493,16.1395692 227.470507,16.7424694 217.793007,17.8994553 L230.508164,0.825562172 C179.672378,-0.693677758 143.198217,38.9949667 143.198217,38.9949667 L143.21792,39.0549142 C131.037308,44.7285131 119.352692,51.3321541 108.369668,58.8521349 L108.40993,58.7921874 C81.8942483,68.3067058 74.2512762,89.6625604 74.2512762,89.6625604 C67.5386189,95.2762119 54.2409441,112.932452 54.2409441,112.932452 C50.4391608,115.13338 46.4711888,118.75335 45.2658916,119.890639 C39.1691608,126.239932 27.9856818,140.544252 22.0362937,165.19893 C21.8761014,165.61428 21.6884965,166.002226 21.5145979,166.41672 C21.2730245,167.78866 21.0126049,169.340443 20.7984441,170.87938 C20.2090734,173.803103 19.7070804,176.833876 19.3061713,180.005096 L19.5537413,179.664252 C19.4526573,180.319392 19.3926923,180.714189 19.3926923,180.714189 C18.7639161,181.142385 14.9621329,196.337354 14.9621329,196.337354 C14.3333566,198.257385 7.40653846,219.058298 7.40653846,219.058298 L7.36627622,219.024898 C7.35942308,219.058298 7.35942308,219.111394 7.35942308,219.151644 C-10.863951,282.792725 13.3430769,321.343224 17.4583916,327.291725 C49.6433392,420.912531 140.373864,488.353424 247.293234,488.353424 C328.875664,488.353424 401.041014,449.099827 444.937133,388.91172" id="Fill-1" fill="#FFFFFF"></path>
                    <path d="M444.937133,388.91172 C446.188689,386.951438 446.804615,382.950373 446.804615,382.950373 C446.857727,381.632385 447.848007,381.030342 447.848007,381.030342 C451.235175,379.210508 452.399353,377.972165 452.553549,377.771769 C476.043566,341.415347 489.62993,298.388485 489.62993,252.25035 C489.62993,203.583289 474.511031,158.37434 448.611276,120.794133 C447.192675,119.335697 443.852622,117.374559 443.852622,117.374559 C442.628479,116.906968 442.386906,115.782525 442.386906,115.782525 C441.711014,111.641012 440.834668,110.142326 440.834668,110.142326 C419.786941,82.9655727 392.822378,60.3782259 361.842727,44.1470228 C356.314808,41.6574904 351.33514,41.3971471 351.33514,41.3971471 C350.218077,41.4305464 349.682675,40.5407548 349.682675,40.5407548 C347.848601,37.9715779 342.354091,35.1677496 340.293007,34.1777601 C311.669126,22.5693625 280.247448,16.1395692 247.293234,16.1395692 C237.294493,16.1395692 227.470507,16.7424694 217.793007,17.8994553 L230.508164,0.825562172 C179.672378,-0.693677758 143.198217,38.9949667 143.198217,38.9949667 L143.21792,39.0549142 C131.037308,44.7285131 119.352692,51.3321541 108.369668,58.8521349 L108.40993,58.7921874 C81.8942483,68.3067058 74.2512762,89.6625604 74.2512762,89.6625604 C67.5386189,95.2762119 54.2409441,112.932452 54.2409441,112.932452 C50.4391608,115.13338 46.4711888,118.75335 45.2658916,119.890639 C39.1691608,126.239932 27.9856818,140.544252 22.0362937,165.19893 C21.8761014,165.61428 21.6884965,166.002226 21.5145979,166.41672 C21.2730245,167.78866 21.0126049,169.340443 20.7984441,170.87938 C20.2090734,173.803103 19.7070804,176.833876 19.3061713,180.005096 L19.5537413,179.664252 C19.4526573,180.319392 19.3926923,180.714189 19.3926923,180.714189 C18.7639161,181.142385 14.9621329,196.337354 14.9621329,196.337354 C14.3333566,198.257385 7.40653846,219.058298 7.40653846,219.058298 L7.36627622,219.024898 C7.35942308,219.058298 7.35942308,219.111394 7.35942308,219.151644 C-10.863951,282.792725 13.3430769,321.343224 17.4583916,327.291725 C49.6433392,420.912531 140.373864,488.353424 247.293234,488.353424 C328.875664,488.353424 401.041014,449.099827 444.937133,388.91172 L444.937133,388.91172 Z" id="Stroke-3" stroke="#FFFFFF" stroke-width="9.85996503"></path>
                    <path d="M448.611276,120.794133 C447.192675,119.335697 443.852622,117.374559 443.852622,117.374559 C442.628479,116.906968 442.386906,115.782525 442.386906,115.782525 C441.711014,111.641012 440.834668,110.142326 440.834668,110.142326 C419.786941,82.9655727 392.822378,60.3782259 361.842727,44.1470228 C356.314808,41.6574904 351.33514,41.3971471 351.33514,41.3971471 C350.218077,41.4305464 349.682675,40.5407548 349.682675,40.5407548 C347.848601,37.9715779 342.354091,35.1677496 340.293007,34.1777601 C311.669126,22.5693625 280.247448,16.1395692 247.293234,16.1395692 C237.294493,16.1395692 227.470507,16.7424694 217.793007,17.8994553 L230.508164,0.825562172 C179.672378,-0.693677758 143.198217,38.9949667 143.198217,38.9949667 L143.21792,39.0549142 C131.037308,44.7285131 119.352692,51.3321541 108.369668,58.8521349 L108.40993,58.7921874 C81.8942483,68.3067058 74.2512762,89.6625604 74.2512762,89.6625604 C67.5386189,95.2762119 54.2409441,112.932452 54.2409441,112.932452 C50.4391608,115.13338 46.4711888,118.75335 45.2658916,119.890639 C39.1691608,126.239932 27.9856818,140.544252 22.0362937,165.19893 C21.8761014,165.61428 21.6884965,166.002226 21.5145979,166.41672 C21.2730245,167.78866 21.0126049,169.340443 20.7984441,170.87938 C20.2090734,173.803103 19.7070804,176.833876 19.3061713,180.005096 L19.5537413,179.664252 C19.4526573,180.319392 19.3926923,180.714189 19.3926923,180.714189 C18.7639161,181.142385 14.9621329,196.337354 14.9621329,196.337354 C14.3333566,198.257385 7.40653846,219.058298 7.40653846,219.058298 L7.36627622,219.024898 C7.35942308,219.058298 7.35942308,219.111394 7.35942308,219.151644 C-10.863951,282.792725 13.3430769,321.343224 17.4583916,327.291725 C49.6433392,420.912531 140.373864,488.353424 247.293234,488.353424 C328.875664,488.353424 401.041014,449.099827 444.937133,388.91172 C446.174983,386.951438 446.804615,382.950373 446.804615,382.950373 C446.857727,381.632385 447.848007,381.030342 447.848007,381.030342 C451.235175,379.210508 452.399353,377.972165 452.553549,377.771769 C476.043566,341.415347 489.62993,298.388485 489.62993,252.25035 C489.62993,203.583289 474.511031,158.37434 448.611276,120.794133" id="Fill-4" fill="#0F1216"></path>
                </g>
                <path d="M145.593392,75.0704921 C146.216171,74.4144956 146.798689,73.8124518 147.300682,73.2643608 C148.11021,72.4139632 148.424598,72.2067163 148.524825,72.2675201 C148.638759,72.1664658 148.705577,72.0996673 148.705577,72.0996673 C148.926591,59.9902802 151.650717,50.275366 151.650717,50.275366 C173.688724,19.4983398 210.042955,11.3429159 210.042955,11.3429159 C214.560035,10.0446252 211.635455,12.0451576 211.635455,12.0451576 C188.746801,37.676979 191.129983,58.8521349 191.129983,58.8521349 L212.974388,138.536869 C212.974388,138.536869 195.27271,132.308327 181.633234,104.314576 C175.322343,160.160774 228.011906,205.449368 228.011906,205.449368 C230.30771,207.40965 226.693531,205.282371 226.693531,205.282371 C213.502937,198.698427 198.31722,184.815452 194.168497,180.90859 C195.27271,185.223951 220.918042,314.10414 220.991713,314.492086 C221.105647,315.09413 221.474003,316.325622 221.734423,317.168312 L230.628951,295.096513 L237.970385,360.168625 C204.555297,391.24025 168.990892,378.949308 166.782465,378.133166 C167.651958,379.524804 168.315,380.541342 168.328706,380.541342 C168.328706,380.541342 197.206154,437.271336 314.881538,431.262888 C314.881538,431.262888 317.718741,431.23634 317.27757,431.597737 C317.330682,431.697935 317.163636,431.838384 316.641084,432.012231 C314.432657,432.814671 310.965822,433.370469 310.965822,433.370469 C168.897517,471.318925 95.2861538,350.293566 92.0874476,344.888018 C91.1965385,343.649674 84.303986,333.941611 80.4490909,324.153904 C80.3420105,323.879002 80.1741084,322.908709 80.8302972,323.652058 C80.8302972,323.652058 95.9217832,339.360862 138.580052,343.248026 C138.901294,343.221478 139.068339,343.181228 139.068339,343.181228 C106.08757,306.430009 92.0737413,279.795352 89.998951,275.73434 C89.998951,275.706935 89.9792483,275.706935 89.965542,275.706935 C89.965542,275.706935 85.9967133,269.759291 81.3057343,252.872091 C81.3057343,252.872091 81.4188112,252.02255 81.8205769,252.872091 C83.4267832,256.224011 94.3558392,272.321616 107.633811,275.908187 L107.660367,275.908187 C96.3903671,257.729548 89.3898776,228.973608 88.4801224,224.772147 C103.845734,246.261599 131.044161,247.807387 131.044161,247.807387 C130.997045,247.733737 130.95764,247.680641 130.896818,247.606991 C130.95764,247.700338 130.984196,247.754291 130.984196,247.754291 C86.2374301,203.127688 95.8883741,154.547979 114.04493,119.469294 C124.733269,98.7685797 138.399301,82.7643205 145.593392,75.0704921" id="Fill-6" fill="#FFFFFF"></path>
                <path d="M261.013234,305.313273 L276.111573,226.959373 C277.677517,219.285242 276.773759,227.066422 276.773759,227.066422 L268.173916,308.744837 L287.013217,373.670506 L250.498794,401.677103 C246.744983,404.593975 249.608741,401.11531 249.608741,401.11531 L278.895664,370.318587 L261.013234,305.313273" id="Fill-7" fill="#C1C9CA"></path>
                <path d="M261.013234,305.313273 L276.111573,226.959373 C277.677517,219.285242 276.773759,227.066422 276.773759,227.066422 L268.173916,308.744837 L287.013217,373.670506 L250.498794,401.677103 C246.744983,404.593975 249.608741,401.11531 249.608741,401.11531 L278.895664,370.318587 L261.013234,305.313273 L261.013234,305.313273 Z" id="Stroke-8" stroke="#0F1216" stroke-width="1.02454545"></path>
                <path d="M270.522832,214.360986 C267.283864,215.906774 270.348934,213.732394 270.348934,213.732394 C286.070052,203.274988 288.766766,156.213662 289.081154,148.358832 C289.121416,147.462189 289.523182,148.358832 289.523182,148.358832 C306.462448,200.967011 270.522832,214.360986 270.522832,214.360986" id="Fill-9" fill="#C1C9CA"></path>
                <path d="M270.522832,214.360986 C267.283864,215.906774 270.348934,213.732394 270.348934,213.732394 C286.070052,203.274988 288.766766,156.213662 289.081154,148.358832 C289.121416,147.462189 289.523182,148.358832 289.523182,148.358832 C306.462448,200.967011 270.522832,214.360986 270.522832,214.360986 L270.522832,214.360986 Z" id="Stroke-10" stroke="#0F1216" stroke-width="1.02454545"></path>
                <path d="M285.53465,82.1357285 C285.53465,82.1357285 282.041259,70.4074361 278.795437,66.4260683 C278.795437,66.4260683 297.487395,56.0089124 322.363462,64.3184869 C322.363462,64.3184869 323.113024,64.619937 322.296643,64.5933888 C317.658776,64.5728354 296.965699,63.7498424 285.53465,82.1357285" id="Fill-11" fill="#C1C9CA"></path>
                <path d="M285.53465,82.1357285 C285.53465,82.1357285 282.041259,70.4074361 278.795437,66.4260683 C278.795437,66.4260683 297.487395,56.0089124 322.363462,64.3184869 C322.363462,64.3184869 323.113024,64.619937 322.296643,64.5933888 C317.658776,64.5728354 296.965699,63.7498424 285.53465,82.1357285 L285.53465,82.1357285 Z" id="Stroke-12" stroke="#0F1216" stroke-width="1.02454545"></path>
                <path d="M259.995542,121.763569 C259.995542,121.763569 270.148479,109.694433 273.006241,82.8782207 C273.006241,82.8782207 290.011469,139.848862 259.533811,205.141923 C259.34021,205.53672 259.132902,205.617221 259.279388,205.028023 C259.279388,205.028023 273.708689,155.865967 272.69785,113.882191 C272.69785,113.882191 263.823881,142.069487 258.443304,147.455338 C258.443304,147.455338 248.43771,112.644704 233.86792,101.378007 C233.86792,101.378007 249.615594,160.12138 247.07222,200.558511 C247.07222,200.558511 246.818654,202.03065 246.657605,200.484862 C245.312675,188.897018 237.682552,135.446149 204.808864,64.5197391 C204.808864,64.5197391 239.014633,83.0589194 259.995542,121.763569" id="Fill-13" fill="#C1C9CA"></path>
                <path d="M259.995542,121.763569 C259.995542,121.763569 270.148479,109.694433 273.006241,82.8782207 C273.006241,82.8782207 290.011469,139.848862 259.533811,205.141923 C259.34021,205.53672 259.132902,205.617221 259.279388,205.028023 C259.279388,205.028023 273.708689,155.865967 272.69785,113.882191 C272.69785,113.882191 263.823881,142.069487 258.443304,147.455338 C258.443304,147.455338 248.43771,112.644704 233.86792,101.378007 C233.86792,101.378007 249.615594,160.12138 247.07222,200.558511 C247.07222,200.558511 246.818654,202.03065 246.657605,200.484862 C245.312675,188.897018 237.682552,135.446149 204.808864,64.5197391 C204.808864,64.5197391 239.014633,83.0589194 259.995542,121.763569 L259.995542,121.763569 Z" id="Stroke-14" stroke="#0F1216" stroke-width="1.02454545" stroke-linejoin="round"></path>
                <g id="Group-18" transform="translate(20.559441, 65.085814)">
                    <path d="M368.006276,360.356175 C368.006276,360.356175 267.271014,445.835259 137.328497,384.616056 C137.328497,384.616056 66.2536538,357.559198 32.7511888,287.041287 C5.03106643,244.060671 0.426608392,210.694771 0.874632867,178.613459 C0.874632867,178.613459 0.713583916,170.631883 1.57708042,177.068527 C1.57708042,177.068527 7.48706294,215.471727 21.769021,237.316581 C21.769021,237.316581 25.8380769,245.371807 22.8860839,236.687989 C22.8860839,236.687989 13.3362238,200.686114 13.2488462,176.071687 C13.2488462,176.071687 -3.90372378,110.309322 33.600979,72.9363625 C33.600979,72.9363625 23.8301049,94.9079632 23.4017832,113.775142 C23.4017832,113.775142 22.7593007,120.88748 24.4057692,113.983245 C24.4057692,113.983245 32.1823776,83.2396182 57.1184091,55.0189229 C57.1184091,55.0189229 65.9392657,26.8787285 80.0944406,16.0796217 C80.0944406,16.0796217 73.3209615,27.9218144 73.2472902,36.4257898 C73.2472902,36.4257898 97.9031993,5.3344676 113.951556,0.704810858 C113.951556,0.704810858 43.0643182,62.4926585 57.1184091,169.113499 C57.1184091,169.113499 40.1397378,142.069487 50.5599476,87.7159807 C50.5599476,87.7159807 -2.24440559,150.801263 78.226958,251.113061 C78.226958,251.113061 52.173007,246.248753 31.9476573,207.055103 C31.9476573,207.055103 33.627535,313.308552 150.579913,374.633947 C150.579913,374.633947 246.410035,429.831 366.567972,359.339637 C366.567972,359.339637 378.949038,351.350354 368.006276,360.356175" id="Fill-15" fill="#C1C9CA"></path>
                    <path d="M368.006276,360.356175 C368.006276,360.356175 267.271014,445.835259 137.328497,384.616056 C137.328497,384.616056 66.2536538,357.559198 32.7511888,287.041287 C5.03106643,244.060671 0.426608392,210.694771 0.874632867,178.613459 C0.874632867,178.613459 0.713583916,170.631883 1.57708042,177.068527 C1.57708042,177.068527 7.48706294,215.471727 21.769021,237.316581 C21.769021,237.316581 25.8380769,245.371807 22.8860839,236.687989 C22.8860839,236.687989 13.3362238,200.686114 13.2488462,176.071687 C13.2488462,176.071687 -3.90372378,110.309322 33.600979,72.9363625 C33.600979,72.9363625 23.8301049,94.9079632 23.4017832,113.775142 C23.4017832,113.775142 22.7593007,120.88748 24.4057692,113.983245 C24.4057692,113.983245 32.1823776,83.2396182 57.1184091,55.0189229 C57.1184091,55.0189229 65.9392657,26.8787285 80.0944406,16.0796217 C80.0944406,16.0796217 73.3209615,27.9218144 73.2472902,36.4257898 C73.2472902,36.4257898 97.9031993,5.3344676 113.951556,0.704810858 C113.951556,0.704810858 43.0643182,62.4926585 57.1184091,169.113499 C57.1184091,169.113499 40.1397378,142.069487 50.5599476,87.7159807 C50.5599476,87.7159807 -2.24440559,150.801263 78.226958,251.113061 C78.226958,251.113061 52.173007,246.248753 31.9476573,207.055103 C31.9476573,207.055103 33.627535,313.308552 150.579913,374.633947 C150.579913,374.633947 246.410035,429.831 366.567972,359.339637 C366.567972,359.339637 378.949038,351.350354 368.006276,360.356175 L368.006276,360.356175 Z" id="Stroke-17" stroke="#0F1216" stroke-width="1.02454545" stroke-linejoin="round"></path>
                </g>
                <path d="M252.868269,35.9641944 C359.995804,35.9710455 416.975437,112.523953 416.975437,112.523953 C421.593601,117.87041 408.516084,119.335697 408.516084,119.335697 C333.319073,129.819651 297.17986,96.8947933 297.17986,96.8947933 C303.32285,80.2893468 335.674843,65.2819282 335.674843,65.2819282 C303.638094,46.7555937 274.451399,60.4921261 274.451399,60.4921261 C265.142255,48.836627 250.258077,37.4157793 250.258077,37.4157793 C247.059371,35.5094501 252.868269,35.9641944 252.868269,35.9641944" id="Fill-19" fill="#0060A0"></path>
                <path d="M252.868269,35.9641944 C359.995804,35.9710455 416.975437,112.523953 416.975437,112.523953 C421.593601,117.87041 408.516084,119.335697 408.516084,119.335697 C333.319073,129.819651 297.17986,96.8947933 297.17986,96.8947933 C303.32285,80.2893468 335.674843,65.2819282 335.674843,65.2819282 C303.638094,46.7555937 274.451399,60.4921261 274.451399,60.4921261 C265.142255,48.836627 250.258077,37.4157793 250.258077,37.4157793 C247.059371,35.5094501 252.868269,35.9641944 252.868269,35.9641944 L252.868269,35.9641944 Z" id="Stroke-20" stroke="#0060A0" stroke-width="1.02454545"></path>
                <path d="M301.442517,220.02859 C373.072465,287.850578 348.885997,401.22921 348.885997,401.22921 C347.594178,405.116375 343.458304,406.159461 343.458304,406.159461 C293.311259,417.272863 260.383601,406.848856 260.383601,406.848856 L296.677867,377.671571 L278.32,309.674879 L283.359633,264.292939 C298.972815,268.955995 298.972815,308.123096 298.972815,308.123096 C328.205769,246.777147 301.442517,220.02859 301.442517,220.02859" id="Fill-21" fill="#0060A0"></path>
                <path d="M301.442517,220.02859 C373.072465,287.850578 348.885997,401.22921 348.885997,401.22921 C347.594178,405.116375 343.458304,406.159461 343.458304,406.159461 C293.311259,417.272863 260.383601,406.848856 260.383601,406.848856 L296.677867,377.671571 L278.32,309.674879 L283.359633,264.292939 C298.972815,268.955995 298.972815,308.123096 298.972815,308.123096 C328.205769,246.777147 301.442517,220.02859 301.442517,220.02859 L301.442517,220.02859 Z" id="Stroke-22" stroke="#0060A0" stroke-width="1.02454545" stroke-linejoin="round"></path>
                <path d="M433.553199,354.261231 C433.553199,354.261231 406.200577,388.998215 365.67792,402.131848 C365.67792,402.131848 359.232535,404.600827 360.785629,397.877291 C360.785629,397.877291 391.015717,280.785342 310.865594,202.827095 C310.865594,202.827095 307.177745,200.358116 311.849878,201.595602 C311.849878,201.595602 324.933392,205.57697 333.292517,215.899923 C333.292517,215.899923 331.947587,192.891231 316.353252,174.960946 C316.353252,174.960946 311.923549,170.303884 316.574266,173.803103 C316.574266,173.803103 433.41271,229.066954 437.408094,341.743345 C437.408094,341.743345 438.271591,350.307268 433.553199,354.261231" id="Fill-23" fill="#0060A0"></path>
                <path d="M433.553199,354.261231 C433.553199,354.261231 406.200577,388.998215 365.67792,402.131848 C365.67792,402.131848 359.232535,404.600827 360.785629,397.877291 C360.785629,397.877291 391.015717,280.785342 310.865594,202.827095 C310.865594,202.827095 307.177745,200.358116 311.849878,201.595602 C311.849878,201.595602 324.933392,205.57697 333.292517,215.899923 C333.292517,215.899923 331.947587,192.891231 316.353252,174.960946 C316.353252,174.960946 311.923549,170.303884 316.574266,173.803103 C316.574266,173.803103 433.41271,229.066954 437.408094,341.743345 C437.408094,341.743345 438.271591,350.307268 433.553199,354.261231 L433.553199,354.261231 Z" id="Stroke-24" stroke="#0060A0" stroke-width="1.02454545"></path>
                <path d="M447.119003,320.386634 C444.08049,197.099543 290.313007,126.333278 290.313007,126.333278 C308.857622,126.199681 318.782692,139.747807 318.782692,139.747807 C319.211014,133.640018 316.540857,126.333278 316.540857,126.333278 C353.008164,140.223105 419.753531,126.794874 419.753531,126.794874 C427.643217,126.106335 429.450734,130.61524 429.450734,130.61524 C444.08049,146.873848 462.364685,184.922501 465.403199,230.593046 C469.706119,295.250664 447.560175,338.879569 447.119003,320.386634" id="Fill-25" fill="#0060A0"></path>
                <path d="M447.119003,320.386634 C444.08049,197.099543 290.313007,126.333278 290.313007,126.333278 C308.857622,126.199681 318.782692,139.747807 318.782692,139.747807 C319.211014,133.640018 316.540857,126.333278 316.540857,126.333278 C353.008164,140.223105 419.753531,126.794874 419.753531,126.794874 C427.643217,126.106335 429.450734,130.61524 429.450734,130.61524 C444.08049,146.873848 462.364685,184.922501 465.403199,230.593046 C469.706119,295.250664 447.560175,338.879569 447.119003,320.386634 L447.119003,320.386634 Z" id="Stroke-26" stroke="#0060A0" stroke-width="1.02454545"></path>
                <path d="M196.222727,22.5693625 C196.296399,22.4760158 196.389773,22.3886637 196.436888,22.2884658 C196.436888,22.2884658 196.403479,22.295317 196.389773,22.3021681 C195.085105,22.6764116 171.601084,29.5943485 164.653706,65.3889772 C164.653706,65.3889772 164.600594,66.0518249 164.974948,65.4360788 C167.09,61.9565569 174.425437,50.8508616 181.191206,54.1419772 C181.191206,54.1419772 181.217762,53.881634 181.264878,53.4200385 C181.633234,50.3892662 183.841661,37.9441734 196.222727,22.5693625" id="Fill-27" fill="#0F1216"></path>
                <path d="M178.226364,346.118653 C173.147325,335.922447 140.560612,264.741688 140.560612,264.741688 C130.422238,267.979708 117.833007,259.723229 117.833007,259.723229 L117.833007,259.749778 C133.88222,302.335597 171.62764,339.568965 177.63785,346.332751 C177.704668,346.373002 177.717517,346.386704 177.738077,346.432949 C178.754913,347.536839 178.754913,347.136047 178.754913,347.136047 C178.621276,346.921949 178.454231,346.573398 178.226364,346.118653" id="Fill-28" fill="#0F1216"></path>
                <path d="M220.168479,363.534247 C220.697028,360.128375 226.981364,319.911336 206.716608,314.318238 C206.716608,314.318238 192.749038,310.74537 193.652797,339.836159 C212.612885,296.253499 220.168479,363.279898 220.168479,363.534247" id="Fill-29" fill="#C1C9CA"></path>
                <path d="M193.652797,339.836159 L200.565909,355.063671 C200.565909,355.063671 204.541591,314.204338 220.189038,363.446895 C220.189038,363.446895 213.15514,293.718578 193.652797,339.836159" id="Fill-30" fill="#0F1216"></path>
                <path d="M145.914633,114.33094 C116.49493,181.564587 182.697185,209.276585 183.573531,209.62428 L183.587238,209.631131 L180.086993,194.149271 L178.092727,185.283898 C176.419703,184.742658 174.880315,184.133764 173.374336,183.464065 C172.872343,183.243972 172.37035,183.002469 171.882063,182.775525 C171.266136,182.474075 170.63736,182.179476 170.061696,181.878883 C141.136276,166.504072 143.934073,129.685198 145.714178,117.716259 C145.727885,117.622912 145.727885,117.555257 145.740734,117.468762 C145.807552,117.121067 145.854668,116.772515 145.914633,116.46507 C146.095385,115.347478 146.229878,114.578438 146.316399,114.17679 C146.356661,114.002942 146.383217,113.869345 146.383217,113.869345 L146.383217,113.829095 C146.456888,112.932452 146.055979,113.955841 145.914633,114.33094" id="Fill-31" fill="#0F1216"></path>
                <path d="M161.086643,152.259699 C161.086643,152.259699 165.01521,165.279431 182.021294,166.002226 C182.021294,166.002226 181.318846,165.005385 180.234336,163.111902 C177.102448,157.5719 169.004598,140.356702 167.893531,122.452965 C167.893531,122.352767 153.223514,135.26545 161.086643,152.259699" id="Fill-32" fill="#0F1216"></path>
                <path d="M189.469808,303.579935 L184.705157,219.105399 L213.127727,313.287998 C213.127727,313.287998 203.805734,291.035501 189.469808,303.579935" id="Fill-33" fill="#C1C9CA"></path>
                <path d="M168.153951,101.598956 C167.32472,115.69603 167.893531,122.667063 167.893531,122.667063 C167.893531,122.667063 150.920857,135.693646 163.898147,157.445154 C145.493164,137.647077 160.872483,112.290158 168.153951,101.598956" id="Fill-34" fill="#C1C9CA"></path>
                <path d="M191.183094,60.6925219 L197.481136,111.205965 C197.481136,111.205965 200.553059,125.002445 181.633234,104.314576 C181.633234,104.314576 190.84215,127.45087 209.774825,137.353335 C210.845629,137.921979 211.949843,138.42982 213.074615,138.911968 C213.188549,138.938517 213.302483,139.005315 213.389003,139.038715 L191.932657,60.5854729 C191.932657,60.5854729 191.530892,59.5286848 191.303881,59.4413327 C191.170245,59.38738 191.10257,59.6691331 191.183094,60.6925219" id="Fill-35" fill="#C1C9CA"></path>
                <g id="Group-38" transform="translate(193.601399, 323.716287)">
                    <mask id="mask-2" fill="white">
                        <use xlink:href="#path-1"></use>
                    </mask>
                    <g id="Clip-37"></g>
                    <path d="M0.0513986014,16.1198722 L6.96451049,31.3473835 C6.96451049,31.3473835 10.9401923,-9.51194921 26.5876399,39.7306077 C26.5876399,39.7306077 19.5537413,-29.9977093 0.0513986014,16.1198722 L0.0513986014,16.1198722 Z" id="Stroke-36" stroke="#0F1216" stroke-width="1.02454545" mask="url(#mask-2)"></path>
                </g>
                <path d="M167.893531,122.667063 C167.893531,122.667063 150.920857,135.693646 163.898147,157.445154" id="Stroke-39" stroke="#0F1216" stroke-width="1.02454545" stroke-linecap="square"></path>
                <path d="M181.633234,104.314576 C181.633234,104.314576 190.84215,127.45087 209.774825,137.353335 C210.845629,137.921979 211.949843,138.42982 213.074615,138.911968 C213.188549,138.938517 213.302483,139.005315 213.389003,139.038715 L191.932657,60.5854729 C191.932657,60.5854729 191.530892,59.5286848 191.303881,59.4413327" id="Stroke-41" stroke="#0F1216" stroke-width="1.02454545" stroke-linejoin="round"></path>
            </g>
        </g>
    </g>
</svg>