<?xml version="1.0" encoding="UTF-8" standalone="no"?>
<svg width="500px" height="500px" viewBox="0 0 500 500" version="1.1" xmlns="http://www.w3.org/2000/svg" xmlns:xlink="http://www.w3.org/1999/xlink">
    <!-- Generator: Sketch 39.1 (31720) - http://www.bohemiancoding.com/sketch -->
    <title>DEN</title>
    <desc>Created with Sketch.</desc>
    <defs>
        <polygon id="path-1" points="0.0598802395 500 499.547904 500 499.547904 0.46007984 0.0598802395 0.46007984"></polygon>
    </defs>
    <g id="NBA" stroke="none" stroke-width="1" fill="none" fill-rule="evenodd">
        <g id="DEN">
            <g id="DNuggets_2nd_pms">
                <g id="Group-3">
                    <mask id="mask-2" fill="white">
                        <use xlink:href="#path-1"></use>
                    </mask>
                    <g id="Clip-2"></g>
                    <path d="M249.836327,490.003992 C117.553892,490.003992 10.0578842,382.500998 10.0578842,250.155689 C10.0578842,118.068862 117.553892,10.4630739 249.836327,10.4630739 C381.986028,10.4630739 489.419162,118.068862 489.419162,250.155689 C489.419162,382.500998 381.986028,490.003992 249.836327,490.003992 L249.836327,490.003992 Z M426.335329,73.7115768 C379.061876,26.4471058 316.422156,0.46007984 249.836327,0.46007984 C183.156687,0.46007984 120.4002,26.4471058 73.1347305,73.7115768 C26.0419162,120.883234 0,183.648703 0,250.155689 C0,316.819361 26.0419162,379.560878 73.1347305,426.755489 C120.4002,474.028942 183.156687,500 249.836327,500 C387.568862,500 499.547904,387.974052 499.547904,250.155689 C499.547904,183.648703 473.505988,120.883234 426.335329,73.7115768 L426.335329,73.7115768 Z" id="Fill-1" fill="#00264A" mask="url(#mask-2)"></path>
                </g>
                <path d="M249.836327,472.118762 C127.42515,472.118762 27.8822355,372.582834 27.8822355,250.155689 C27.8822355,127.846307 127.42515,28.3183633 249.836327,28.3183633 C372.208583,28.3183633 471.658683,127.846307 471.658683,250.155689 C471.658683,372.582834 372.208583,472.118762 249.836327,472.118762 L249.836327,472.118762 Z M249.836327,10.4630739 C117.553892,10.4630739 10.0578842,118.068862 10.0578842,250.155689 C10.0578842,382.500998 117.553892,490.003992 249.836327,490.003992 C381.986028,490.003992 489.419162,382.500998 489.419162,250.155689 C489.419162,118.068862 381.986028,10.4630739 249.836327,10.4630739 L249.836327,10.4630739 Z" id="Fill-4" fill="#F3B336"></path>
                <path d="M406.484032,175.212575 L379.506986,190.353293 L376.840319,186.096806 L376.793413,186.111776 L376.840319,186.166667 L365.253493,193.387226 L102.404192,358.766467 L102.483034,359.023952 L90.256487,373.861277 L89.9221557,373.300399 C86.257485,372.660679 81.3293413,368.543912 77.3922156,362.291417 C73.4311377,356.248503 71.762475,349.894212 72.6516966,346.424152 L72.4570858,345.933134 L90.9121756,341.005988 L91.1147705,341.286427 L228.894212,251.723553 L136.02495,193.379242 L135.986028,193.387226 L124.439122,186.166667 L124.47006,186.111776 L124.439122,186.096806 L121.694611,190.353293 L94.7874251,175.212575 C76.4560878,210.040918 56.0598802,262.256487 56.3952096,300.266467 C42.2045908,256.346307 56.7774451,196.154691 76.5419162,157.294411 L76.7215569,157.02994 L71.762475,154.207585 L87.7155689,129.521956 L92.3313373,132.89022 C119.269461,98.6856287 167.48503,60.6367265 213.214571,54.8902196 C178.673653,70.6087824 139.978044,110.848303 116.111776,141.857285 L141.170659,159.907186 L138.106786,164.545908 L138.176647,164.576846 L138.215569,164.545908 L147.837325,170.861277 L250.654691,237.649701 L355.679641,169.38024 L363.000998,164.545908 L363.031936,164.576846 L363.10978,164.545908 L360.08483,159.907186 L384.996008,141.857285 C361.308383,110.848303 322.457086,70.6087824 287.994012,54.8902196 C333.809381,60.6447106 381.986028,98.7864271 409.072854,133.01497 L413.52495,129.756487 L429.48503,154.510978 L424.487026,157.294411 C444.431138,196.154691 459.112774,256.346307 444.969062,300.266467 C445.211577,262.256487 424.744511,210.040918 406.484032,175.212575 L406.484032,175.212575 Z M423.855289,362.291417 C419.941118,368.543912 414.998004,372.660679 411.286427,373.300399 L410.928144,373.861277 L398.702595,359.023952 L398.843313,358.766467 L261.180639,272.096806 L283.363273,258.943114 L410.179641,341.286427 L410.359281,341.005988 L428.783433,345.933134 L428.580838,346.424152 C429.48503,349.894212 427.667665,356.248503 423.855289,362.291417 L423.855289,362.291417 Z M250.654691,454.43513 C211.545908,454.43513 179.663673,422.5998 179.663673,383.491018 C179.663673,344.374251 211.545908,312.608782 250.654691,312.608782 C289.686627,312.608782 321.590818,344.374251 321.590818,383.491018 C321.590818,422.5998 289.686627,454.43513 250.654691,454.43513 L250.654691,454.43513 Z M262.818363,87.0449102 L272.346307,74.5618762 L338.510978,155.735529 L293.99002,144.242515 L249.625749,200.957086 L204.723553,144.477046 L169.255489,153.528942 L249.625749,55.5449102 L262.818363,87.0449102 L262.818363,87.0449102 Z M249.836327,28.3183633 C127.42515,28.3183633 27.8822355,127.846307 27.8822355,250.155689 C27.8822355,372.582834 127.42515,472.118762 249.836327,472.118762 C372.208583,472.118762 471.658683,372.582834 471.658683,250.155689 C471.658683,127.846307 372.208583,28.3183633 249.836327,28.3183633 L249.836327,28.3183633 Z" id="Fill-5" fill="#4D85B9"></path>
                <path d="M256.49501,376.645709 L256.49501,359.172655 C270.287425,357.972056 282.957086,351.96008 293.022954,342.502994 C301.802395,351.492016 307.743513,363.422156 309.358283,376.645709 L256.49501,376.645709 L256.49501,376.645709 Z M293.022954,424.572854 C283.07485,414.858283 270.287425,409.00998 256.49501,407.715569 L256.49501,388.550898 L309.404192,388.550898 C308.305389,402.484032 302.262475,414.99002 293.022954,424.572854 L293.022954,424.572854 Z M256.49501,442.334331 L256.49501,419.613772 C266.763473,420.88523 276.330339,425.196607 283.979042,432.268463 C275.94012,437.718563 266.630739,441.266467 256.49501,442.334331 L256.49501,442.334331 Z M256.49501,324.694611 C266.630739,325.707585 275.94012,329.232535 283.979042,334.721557 C276.330339,341.824351 266.763473,346.03493 256.49501,347.305389 L256.49501,324.694611 L256.49501,324.694611 Z M244.721557,347.305389 C234.469062,346.03493 224.988024,341.824351 217.253493,334.721557 C225.252495,329.232535 234.608782,325.707585 244.721557,324.670659 L244.721557,347.305389 L244.721557,347.305389 Z M244.721557,376.645709 L191.968064,376.645709 C193.496008,363.422156 199.44511,351.492016 208.153693,342.502994 C218.282435,351.96008 230.991018,357.972056 244.721557,359.172655 L244.721557,376.645709 L244.721557,376.645709 Z M244.721557,407.715569 C230.991018,409.00998 218.172655,414.858283 208.153693,424.572854 C198.93014,414.99002 193.066866,402.484032 191.780439,388.550898 L244.721557,388.550898 L244.721557,407.715569 L244.721557,407.715569 Z M244.721557,442.334331 C234.608782,441.258483 225.252495,437.718563 217.159681,432.268463 C224.988024,425.196607 234.469062,420.88523 244.721557,419.613772 L244.721557,442.334331 L244.721557,442.334331 Z M250.654691,312.608782 C211.545908,312.608782 179.663673,344.374251 179.663673,383.491018 C179.663673,422.5998 211.545908,454.43513 250.654691,454.43513 C289.686627,454.43513 321.590818,422.5998 321.590818,383.491018 C321.590818,344.374251 289.686627,312.608782 250.654691,312.608782 L250.654691,312.608782 Z" id="Fill-6" fill="#F3B336"></path>
                <path d="M424.487026,157.294411 L409.072854,133.01497 C381.986028,98.7864271 333.809381,60.6447106 287.994012,54.8902196 C322.457086,70.6087824 361.308383,110.848303 384.996008,141.857285 L360.08483,159.907186 L363.10978,164.545908 L363.031936,164.576846 L376.793413,186.111776 L376.840319,186.096806 L379.506986,190.353293 L406.484032,175.212575 C424.744511,210.040918 445.211577,262.256487 444.969062,300.266467 C459.112774,256.346307 444.431138,196.154691 424.487026,157.294411" id="Fill-7" fill="#F3B336"></path>
                <path d="M138.106786,164.545908 L141.170659,159.907186 L116.111776,141.857285 C139.978044,110.848303 178.673653,70.6087824 213.214571,54.8902196 C167.48503,60.6367265 119.269461,98.6856287 92.3313373,132.89022 L92.4091816,132.929142 L76.8303393,157.091816 L76.7215569,157.02994 L76.5419162,157.294411 C56.7774451,196.154691 42.2045908,256.346307 56.3952096,300.266467 C56.0598802,262.256487 76.4560878,210.040918 94.7874251,175.212575 L121.694611,190.353293 L124.439122,186.096806 L124.47006,186.111776 L138.176647,164.576846 L138.106786,164.545908" id="Fill-8" fill="#F3B336"></path>
                <path d="M355.679641,169.38024 L250.654691,237.649701 L147.837325,170.861277 L149.802395,172.155689 L136.02495,193.379242 L228.894212,251.723553 L91.1147705,341.286427 L90.9121756,341.005988 L72.4570858,345.933134 L72.6516966,346.424152 C71.762475,349.894212 73.4311377,356.248503 77.3922156,362.291417 C81.3293413,368.543912 86.257485,372.660679 89.9221557,373.300399 L90.256487,373.861277 L102.483034,359.023952 L102.404192,358.766467 L365.253493,193.387226 L351.43014,172.155689 L355.679641,169.38024" id="Fill-9" fill="#F3B336"></path>
                <path d="M410.359281,341.005988 L410.179641,341.286427 L283.363273,258.943114 L261.180639,272.096806 L398.843313,358.766467 L398.702595,359.023952 L410.928144,373.861277 L411.286427,373.300399 C414.998004,372.660679 419.941118,368.543912 423.855289,362.291417 C427.667665,356.248503 429.48503,349.894212 428.580838,346.424152 L428.783433,345.933134 L410.359281,341.005988" id="Fill-10" fill="#F3B336"></path>
                <polyline id="Fill-11" fill="#00264A" points="92.4091816 132.929142 92.3313373 132.89022 87.7155689 129.521956 71.762475 154.207585 76.7215569 157.02994 76.8303393 157.091816 92.4091816 132.929142"></polyline>
                <polyline id="Fill-12" fill="#00264A" points="147.837325 170.861277 138.215569 164.545908 138.176647 164.576846 124.47006 186.111776 124.439122 186.166667 135.986028 193.387226 136.02495 193.379242 149.802395 172.155689 147.837325 170.861277"></polyline>
                <polyline id="Fill-13" fill="#00264A" points="429.48503 154.510978 413.52495 129.756487 409.072854 133.01497 424.487026 157.294411 429.48503 154.510978"></polyline>
                <polyline id="Fill-14" fill="#00264A" points="363.000998 164.545908 355.679641 169.38024 351.43014 172.155689 365.253493 193.387226 376.840319 186.166667 376.793413 186.111776 363.031936 164.576846 363.000998 164.545908"></polyline>
                <polyline id="Fill-15" fill="#F3B336" points="293.99002 144.242515 338.510978 155.735529 272.346307 74.5618762 272.346307 108.641717 262.818363 87.0449102 249.625749 55.5449102 249.625749 200.957086 293.99002 144.242515"></polyline>
                <polyline id="Fill-16" fill="#FFFFFF" points="272.346307 74.5618762 262.818363 87.0449102 272.346307 108.641717 272.346307 74.5618762"></polyline>
                <path d="M295.401198,352.373253 C294.388224,353.39521 293.194611,354.479042 291.791417,355.359281 C284.103792,361.136727 275.07485,365.003992 265.695609,367.05489 L265.695609,372.286427 L261.125749,372.286427 L261.125749,363.242515 C272.821357,361.316367 283.596806,356.520958 292.750499,348.896208 C293.296407,349.51996 294.988024,351.859281 295.057884,351.96008 C295.300399,352.08483 295.401198,352.264471 295.401198,352.373253 L295.401198,352.373253 Z M256.49501,359.172655 L256.49501,376.645709 L309.358283,376.645709 C307.743513,363.422156 301.802395,351.492016 293.022954,342.502994 C282.957086,351.96008 270.287425,357.972056 256.49501,359.172655 L256.49501,359.172655 Z" id="Fill-17" fill="#4D85B9"></path>
                <path d="M265.695609,336.171657 L265.695609,340.499002 C264.315369,341.005988 262.740519,341.489022 261.125749,341.824351 L261.125749,329.89521 C266.326347,331.025948 271.262475,332.850299 275.94012,335.298403 C274.381238,336.288423 272.954092,337.169661 271.262475,337.949102 C269.461078,337.270459 267.457086,336.732535 265.695609,336.171657 L265.695609,336.171657 Z M256.49501,324.694611 L256.49501,347.305389 C266.763473,346.03493 276.330339,341.824351 283.979042,334.721557 C275.94012,329.232535 266.630739,325.707585 256.49501,324.694611 L256.49501,324.694611 Z" id="Fill-18" fill="#4D85B9"></path>
                <path d="M240.167665,335.032934 C236.682635,335.625749 233.236527,336.732535 230.055888,337.949102 C228.387226,337.169661 226.866267,336.288423 225.252495,335.298403 C229.876248,332.850299 234.90519,331.025948 240.167665,329.89521 L240.167665,335.032934 L240.167665,335.032934 Z M244.721557,347.305389 L244.721557,324.670659 C234.608782,325.707585 225.252495,329.232535 217.253493,334.721557 C224.988024,341.824351 234.469062,346.03493 244.721557,347.305389 L244.721557,347.305389 Z" id="Fill-19" fill="#4D85B9"></path>
                <path d="M240.167665,363.242515 L240.167665,367.484032 L235.606786,367.05489 C226.055888,365.003992 217.159681,361.136727 209.510978,355.359281 C207.062874,358.845309 203.553892,365.214571 201.760479,372.286427 L197.339321,372.286427 C199.078842,363.577844 202.922156,355.663673 208.535928,348.896208 C217.595808,356.520958 228.387226,361.316367 240.167665,363.242515 L240.167665,363.242515 Z M191.968064,376.645709 L244.721557,376.645709 L244.721557,359.172655 C230.991018,357.972056 218.282435,351.96008 208.153693,342.502994 C199.44511,351.492016 193.496008,363.422156 191.968064,376.645709 L191.968064,376.645709 Z" id="Fill-20" fill="#4D85B9"></path>
                <path d="M240.167665,397.759481 L202.922156,397.759481 C204.247505,402.304391 207.062874,409.696607 211.896208,415.543912 C210.734531,416.401198 209.588822,417.228543 208.535928,418.116766 C202.361277,410.858283 198.555888,402.304391 196.848303,392.948104 L240.167665,392.948104 L240.167665,397.759481 L240.167665,397.759481 Z M208.153693,424.572854 C218.172655,414.858283 230.991018,409.00998 244.721557,407.715569 L244.721557,388.550898 L191.780439,388.550898 C193.066866,402.484032 198.93014,414.99002 208.153693,424.572854 L208.153693,424.572854 Z" id="Fill-21" fill="#4D85B9"></path>
                <path d="M240.167665,430.576846 C236.682635,431.387226 233.516966,432.681637 230.530938,434.178643 C228.612774,433.438124 226.866267,432.681637 225.252495,431.730539 C229.673653,428.603792 234.780439,426.366267 240.167665,425.055888 L240.167665,430.576846 L240.167665,430.576846 Z M244.721557,442.334331 L244.721557,419.613772 C234.469062,420.88523 224.988024,425.196607 217.159681,432.268463 C225.252495,437.718563 234.608782,441.258483 244.721557,442.334331 L244.721557,442.334331 Z" id="Fill-22" fill="#4D85B9"></path>
                <path d="M261.125749,425.055888 C266.560878,426.366267 271.363273,428.603792 275.94012,431.730539 C274.326347,432.681637 272.517964,433.438124 270.653693,434.178643 C269.149701,433.360279 267.457086,432.681637 265.976048,432.073852 L265.976048,435.737525 C264.315369,436.221557 262.740519,436.610778 261.125749,436.907186 L261.125749,425.055888 L261.125749,425.055888 Z M256.49501,442.334331 C266.630739,441.266467 275.94012,437.718563 283.979042,432.268463 C276.330339,425.196607 266.763473,420.88523 256.49501,419.613772 L256.49501,442.334331 L256.49501,442.334331 Z" id="Fill-23" fill="#4D85B9"></path>
                <path d="M261.125749,392.948104 L304.258483,392.948104 L303.143713,397.759481 L265.695609,397.759481 L265.695609,404.667665 C264.315369,404.285429 262.740519,403.958084 261.125749,403.676647 L261.125749,392.948104 L261.125749,392.948104 Z M256.49501,407.715569 C270.287425,409.00998 283.07485,414.858283 293.022954,424.572854 C302.262475,414.99002 308.305389,402.484032 309.404192,388.550898 L256.49501,388.550898 L256.49501,407.715569 L256.49501,407.715569 Z" id="Fill-24" fill="#4D85B9"></path>
                <path d="M265.976048,432.073852 C267.457086,432.681637 269.149701,433.360279 270.653693,434.178643 C272.517964,433.438124 274.326347,432.681637 275.94012,431.730539 C271.363273,428.603792 266.560878,426.366267 261.125749,425.055888 L261.125749,436.907186 C262.740519,436.610778 264.315369,436.221557 265.976048,435.737525 L265.976048,432.073852" id="Fill-25" fill="#00264A"></path>
                <path d="M261.125749,363.242515 L261.125749,372.286427 L265.695609,372.286427 L265.695609,367.05489 C275.07485,365.003992 284.103792,361.136727 291.791417,355.359281 C293.194611,354.479042 294.388224,353.39521 295.401198,352.373253 C295.401198,352.264471 295.300399,352.08483 295.057884,351.96008 C294.988024,351.859281 293.296407,349.51996 292.750499,348.896208 C283.596806,356.520958 272.821357,361.316367 261.125749,363.242515" id="Fill-26" fill="#00264A"></path>
                <path d="M201.760479,372.286427 C203.553892,365.214571 207.062874,358.845309 209.510978,355.359281 C217.159681,361.136727 226.055888,365.003992 235.606786,367.05489 L240.167665,367.484032 L240.167665,363.242515 C228.387226,361.316367 217.595808,356.520958 208.535928,348.896208 C202.922156,355.663673 199.078842,363.577844 197.339321,372.286427 L201.760479,372.286427" id="Fill-27" fill="#00264A"></path>
                <path d="M208.535928,418.116766 C209.588822,417.228543 210.734531,416.401198 211.896208,415.543912 C207.062874,409.696607 204.247505,402.304391 202.922156,397.759481 L240.167665,397.759481 L240.167665,392.948104 L196.848303,392.948104 C198.555888,402.304391 202.361277,410.858283 208.535928,418.116766" id="Fill-28" fill="#00264A"></path>
                <path d="M265.695609,397.759481 L303.143713,397.759481 L304.258483,392.948104 L261.125749,392.948104 L261.125749,403.676647 C262.740519,403.958084 264.315369,404.285429 265.695609,404.667665 L265.695609,397.759481" id="Fill-29" fill="#00264A"></path>
                <path d="M230.055888,337.949102 C233.236527,336.732535 236.682635,335.625749 240.167665,335.032934 L240.167665,329.89521 C234.90519,331.025948 229.876248,332.850299 225.252495,335.298403 C226.866267,336.288423 228.387226,337.169661 230.055888,337.949102" id="Fill-30" fill="#00264A"></path>
                <path d="M261.125749,329.89521 L261.125749,341.824351 C262.740519,341.489022 264.315369,341.005988 265.695609,340.499002 L265.695609,336.171657 C267.457086,336.732535 269.461078,337.270459 271.262475,337.949102 C272.954092,337.169661 274.381238,336.288423 275.94012,335.298403 C271.262475,332.850299 266.326347,331.025948 261.125749,329.89521" id="Fill-31" fill="#00264A"></path>
                <path d="M230.530938,434.178643 C233.516966,432.681637 236.682635,431.387226 240.167665,430.576846 L240.167665,425.055888 C234.780439,426.366267 229.673653,428.603792 225.252495,431.730539 C226.866267,432.681637 228.612774,433.438124 230.530938,434.178643" id="Fill-32" fill="#00264A"></path>
                <polyline id="Fill-33" fill="#FFFFFF" points="204.723553 144.477046 249.625749 200.957086 249.625749 55.5449102 169.255489 153.528942 204.723553 144.477046"></polyline>
            </g>
        </g>
    </g>
</svg>