<?xml version="1.0" encoding="UTF-8" standalone="no"?>
<!-- Created with Inkscape (http://www.inkscape.org/) by Marsupilami -->
<svg
   xmlns:svg="http://www.w3.org/2000/svg"
   xmlns="http://www.w3.org/2000/svg"
   xmlns:xlink="http://www.w3.org/1999/xlink"
   version="1.0"
   width="700"
   height="768"
   viewBox="0 0 111.91111 122.70026"
   id="svg5946">
  <defs
     id="defs5948">
    <linearGradient
       x1="0"
       y1="0"
       x2="1"
       y2="0"
       id="linearGradient3180"
       gradientUnits="userSpaceOnUse"
       gradientTransform="matrix(0,-56.7045,-56.7045,0,154.9896,1846.7056)"
       spreadMethod="pad">
      <stop
         id="stop3182"
         style="stop-color:#ffffff;stop-opacity:1"
         offset="0" />
      <stop
         id="stop3184"
         style="stop-color:#cad0d3;stop-opacity:1"
         offset="0.70787001" />
      <stop
         id="stop3186"
         style="stop-color:#cad0d3;stop-opacity:1"
         offset="0.70787001" />
      <stop
         id="stop3188"
         style="stop-color:#cad0d3;stop-opacity:1"
         offset="1" />
    </linearGradient>
    <linearGradient
       x1="0"
       y1="0"
       x2="1"
       y2="0"
       id="linearGradient5816"
       xlink:href="#linearGradient3180"
       gradientUnits="userSpaceOnUse"
       gradientTransform="matrix(0,17.731142,-17.707907,0,215.21313,-42.208721)"
       spreadMethod="pad" />
    <linearGradient
       x1="0"
       y1="0"
       x2="1"
       y2="0"
       id="linearGradient3158"
       gradientUnits="userSpaceOnUse"
       gradientTransform="matrix(0,-57.3336,-57.3336,0,331.4042,1847.2725)"
       spreadMethod="pad">
      <stop
         id="stop3160"
         style="stop-color:#ffffff;stop-opacity:1"
         offset="0" />
      <stop
         id="stop3162"
         style="stop-color:#cad0d3;stop-opacity:1"
         offset="0.70787001" />
      <stop
         id="stop3164"
         style="stop-color:#cad0d3;stop-opacity:1"
         offset="0.70787001" />
      <stop
         id="stop3166"
         style="stop-color:#cad0d3;stop-opacity:1"
         offset="1" />
    </linearGradient>
    <linearGradient
       x1="0"
       y1="0"
       x2="1"
       y2="0"
       id="linearGradient5821"
       xlink:href="#linearGradient3158"
       gradientUnits="userSpaceOnUse"
       gradientTransform="matrix(0,17.927859,-17.904366,0,270.30459,-42.385983)"
       spreadMethod="pad" />
    <linearGradient
       x1="0"
       y1="0"
       x2="1"
       y2="0"
       id="linearGradient3136"
       gradientUnits="userSpaceOnUse"
       gradientTransform="matrix(0,-56.71656,-56.71656,0,301.1894,1846.7073)"
       spreadMethod="pad">
      <stop
         id="stop3138"
         style="stop-color:#ffffff;stop-opacity:1"
         offset="0" />
      <stop
         id="stop3140"
         style="stop-color:#cad0d3;stop-opacity:1"
         offset="0.70787001" />
      <stop
         id="stop3142"
         style="stop-color:#cad0d3;stop-opacity:1"
         offset="0.70787001" />
      <stop
         id="stop3144"
         style="stop-color:#cad0d3;stop-opacity:1"
         offset="1" />
    </linearGradient>
    <linearGradient
       x1="0"
       y1="0"
       x2="1"
       y2="0"
       id="linearGradient5826"
       xlink:href="#linearGradient3136"
       gradientUnits="userSpaceOnUse"
       gradientTransform="matrix(0,17.734914,-17.711674,0,260.86899,-42.209246)"
       spreadMethod="pad" />
    <linearGradient
       x1="0"
       y1="0"
       x2="1"
       y2="0"
       id="linearGradient3114"
       gradientUnits="userSpaceOnUse"
       gradientTransform="matrix(0,-56.67732,-56.67732,0,270.8759,1846.7019)"
       spreadMethod="pad">
      <stop
         id="stop3116"
         style="stop-color:#ffffff;stop-opacity:1"
         offset="0" />
      <stop
         id="stop3118"
         style="stop-color:#cad0d3;stop-opacity:1"
         offset="0.70787001" />
      <stop
         id="stop3120"
         style="stop-color:#cad0d3;stop-opacity:1"
         offset="0.70787001" />
      <stop
         id="stop3122"
         style="stop-color:#cad0d3;stop-opacity:1"
         offset="1" />
    </linearGradient>
    <linearGradient
       x1="0"
       y1="0"
       x2="1"
       y2="0"
       id="linearGradient5831"
       xlink:href="#linearGradient3114"
       gradientUnits="userSpaceOnUse"
       gradientTransform="matrix(0,17.722644,-17.69942,0,251.40257,-42.207558)"
       spreadMethod="pad" />
    <linearGradient
       x1="0"
       y1="0"
       x2="1"
       y2="0"
       id="linearGradient3092"
       gradientUnits="userSpaceOnUse"
       gradientTransform="matrix(0,-56.67732,-56.67732,0,239.9174,1846.7019)"
       spreadMethod="pad">
      <stop
         id="stop3094"
         style="stop-color:#ffffff;stop-opacity:1"
         offset="0" />
      <stop
         id="stop3096"
         style="stop-color:#cad0d3;stop-opacity:1"
         offset="0.70787001" />
      <stop
         id="stop3098"
         style="stop-color:#cad0d3;stop-opacity:1"
         offset="0.70787001" />
      <stop
         id="stop3100"
         style="stop-color:#cad0d3;stop-opacity:1"
         offset="1" />
    </linearGradient>
    <linearGradient
       x1="0"
       y1="0"
       x2="1"
       y2="0"
       id="linearGradient5836"
       xlink:href="#linearGradient3092"
       gradientUnits="userSpaceOnUse"
       gradientTransform="matrix(0,17.722644,-17.69942,0,241.73472,-42.207558)"
       spreadMethod="pad" />
    <linearGradient
       x1="0"
       y1="0"
       x2="1"
       y2="0"
       id="linearGradient3070"
       gradientUnits="userSpaceOnUse"
       gradientTransform="matrix(0,-56.68488,-56.68488,0,208.2979,1846.7019)"
       spreadMethod="pad">
      <stop
         id="stop3072"
         style="stop-color:#ffffff;stop-opacity:1"
         offset="0" />
      <stop
         id="stop3074"
         style="stop-color:#cad0d3;stop-opacity:1"
         offset="0.70787001" />
      <stop
         id="stop3076"
         style="stop-color:#cad0d3;stop-opacity:1"
         offset="0.70787001" />
      <stop
         id="stop3078"
         style="stop-color:#cad0d3;stop-opacity:1"
         offset="1" />
    </linearGradient>
    <linearGradient
       x1="0"
       y1="0"
       x2="1"
       y2="0"
       id="linearGradient5841"
       xlink:href="#linearGradient3070"
       gradientUnits="userSpaceOnUse"
       gradientTransform="matrix(0,17.725007,-17.701781,0,231.86046,-42.207558)"
       spreadMethod="pad" />
    <linearGradient
       x1="0"
       y1="0"
       x2="1"
       y2="0"
       id="linearGradient3048"
       gradientUnits="userSpaceOnUse"
       gradientTransform="matrix(0,-56.69046,-56.69046,0,181.0676,1846.7145)"
       spreadMethod="pad">
      <stop
         id="stop3050"
         style="stop-color:#ffffff;stop-opacity:1"
         offset="0" />
      <stop
         id="stop3052"
         style="stop-color:#cad0d3;stop-opacity:1"
         offset="0.70787001" />
      <stop
         id="stop3054"
         style="stop-color:#cad0d3;stop-opacity:1"
         offset="0.70787001" />
      <stop
         id="stop3056"
         style="stop-color:#cad0d3;stop-opacity:1"
         offset="1" />
    </linearGradient>
    <linearGradient
       x1="0"
       y1="0"
       x2="1"
       y2="0"
       id="linearGradient5846"
       xlink:href="#linearGradient3048"
       gradientUnits="userSpaceOnUse"
       gradientTransform="matrix(0,17.726752,-17.703524,0,25.02671,95.347872)"
       spreadMethod="pad" />
    <linearGradient
       x1="0"
       y1="0"
       x2="1"
       y2="0"
       id="linearGradient3026"
       gradientUnits="userSpaceOnUse"
       gradientTransform="matrix(0,-56.68578,-56.68578,0,154.9307,1846.7019)"
       spreadMethod="pad">
      <stop
         id="stop3028"
         style="stop-color:#ffffff;stop-opacity:1"
         offset="0" />
      <stop
         id="stop3030"
         style="stop-color:#c9cfd2;stop-opacity:1"
         offset="0.70787001" />
      <stop
         id="stop3032"
         style="stop-color:#c9cfd2;stop-opacity:1"
         offset="0.70787001" />
      <stop
         id="stop3034"
         style="stop-color:#c9cfd2;stop-opacity:1"
         offset="1" />
    </linearGradient>
    <linearGradient
       x1="0"
       y1="0"
       x2="1"
       y2="0"
       id="linearGradient5914"
       xlink:href="#linearGradient3026"
       gradientUnits="userSpaceOnUse"
       gradientTransform="matrix(0,17.725289,-17.702062,0,215.19474,-42.207558)"
       spreadMethod="pad" />
    <linearGradient
       x1="0"
       y1="0"
       x2="1"
       y2="0"
       id="linearGradient3004"
       gradientUnits="userSpaceOnUse"
       gradientTransform="matrix(0,-57.32136,-57.32136,0,331.4042,1847.2131)"
       spreadMethod="pad">
      <stop
         id="stop3006"
         style="stop-color:#ffffff;stop-opacity:1"
         offset="0" />
      <stop
         id="stop3008"
         style="stop-color:#c9cfd2;stop-opacity:1"
         offset="0.70787001" />
      <stop
         id="stop3010"
         style="stop-color:#c9cfd2;stop-opacity:1"
         offset="0.70787001" />
      <stop
         id="stop3012"
         style="stop-color:#c9cfd2;stop-opacity:1"
         offset="1" />
    </linearGradient>
    <linearGradient
       x1="0"
       y1="0"
       x2="1"
       y2="0"
       id="linearGradient5919"
       xlink:href="#linearGradient3004"
       gradientUnits="userSpaceOnUse"
       gradientTransform="matrix(0,17.924031,-17.900544,0,270.30459,-42.367408)"
       spreadMethod="pad" />
    <linearGradient
       x1="0"
       y1="0"
       x2="1"
       y2="0"
       id="linearGradient2982"
       gradientUnits="userSpaceOnUse"
       gradientTransform="matrix(0,-56.71656,-56.71656,0,301.1335,1846.7019)"
       spreadMethod="pad">
      <stop
         id="stop2984"
         style="stop-color:#ffffff;stop-opacity:1"
         offset="0" />
      <stop
         id="stop2986"
         style="stop-color:#c9cfd2;stop-opacity:1"
         offset="0.70787001" />
      <stop
         id="stop2988"
         style="stop-color:#c9cfd2;stop-opacity:1"
         offset="0.70787001" />
      <stop
         id="stop2990"
         style="stop-color:#c9cfd2;stop-opacity:1"
         offset="1" />
    </linearGradient>
    <linearGradient
       x1="0"
       y1="0"
       x2="1"
       y2="0"
       id="linearGradient5924"
       xlink:href="#linearGradient2982"
       gradientUnits="userSpaceOnUse"
       gradientTransform="matrix(0,17.734914,-17.711674,0,260.85153,-42.207558)"
       spreadMethod="pad" />
    <linearGradient
       x1="0"
       y1="0"
       x2="1"
       y2="0"
       id="linearGradient2960"
       gradientUnits="userSpaceOnUse"
       gradientTransform="matrix(0,-56.67732,-56.67732,0,270.8759,1846.6982)"
       spreadMethod="pad">
      <stop
         id="stop2962"
         style="stop-color:#ffffff;stop-opacity:1"
         offset="0" />
      <stop
         id="stop2964"
         style="stop-color:#c9cfd2;stop-opacity:1"
         offset="0.70787001" />
      <stop
         id="stop2966"
         style="stop-color:#c9cfd2;stop-opacity:1"
         offset="0.70787001" />
      <stop
         id="stop2968"
         style="stop-color:#c9cfd2;stop-opacity:1"
         offset="1" />
    </linearGradient>
    <linearGradient
       x1="0"
       y1="0"
       x2="1"
       y2="0"
       id="linearGradient5929"
       xlink:href="#linearGradient2960"
       gradientUnits="userSpaceOnUse"
       gradientTransform="matrix(0,17.722644,-17.69942,0,251.40257,-42.206408)"
       spreadMethod="pad" />
    <linearGradient
       x1="0"
       y1="0"
       x2="1"
       y2="0"
       id="linearGradient2938"
       gradientUnits="userSpaceOnUse"
       gradientTransform="matrix(0,-56.67732,-56.67732,0,239.9174,1846.6982)"
       spreadMethod="pad">
      <stop
         id="stop2940"
         style="stop-color:#ffffff;stop-opacity:1"
         offset="0" />
      <stop
         id="stop2942"
         style="stop-color:#c9cfd2;stop-opacity:1"
         offset="0.70787001" />
      <stop
         id="stop2944"
         style="stop-color:#c9cfd2;stop-opacity:1"
         offset="0.70787001" />
      <stop
         id="stop2946"
         style="stop-color:#c9cfd2;stop-opacity:1"
         offset="1" />
    </linearGradient>
    <linearGradient
       x1="0"
       y1="0"
       x2="1"
       y2="0"
       id="linearGradient5934"
       xlink:href="#linearGradient2938"
       gradientUnits="userSpaceOnUse"
       gradientTransform="matrix(0,17.722644,-17.69942,0,241.73472,-42.206408)"
       spreadMethod="pad" />
    <linearGradient
       x1="0"
       y1="0"
       x2="1"
       y2="0"
       id="linearGradient2916"
       gradientUnits="userSpaceOnUse"
       gradientTransform="matrix(0,-56.68488,-56.68488,0,208.2521,1846.7001)"
       spreadMethod="pad">
      <stop
         id="stop2918"
         style="stop-color:#ffffff;stop-opacity:1"
         offset="0" />
      <stop
         id="stop2920"
         style="stop-color:#c9cfd2;stop-opacity:1"
         offset="0.70787001" />
      <stop
         id="stop2922"
         style="stop-color:#c9cfd2;stop-opacity:1"
         offset="0.70787001" />
      <stop
         id="stop2924"
         style="stop-color:#c9cfd2;stop-opacity:1"
         offset="1" />
    </linearGradient>
    <linearGradient
       x1="0"
       y1="0"
       x2="1"
       y2="0"
       id="linearGradient5939"
       xlink:href="#linearGradient2916"
       gradientUnits="userSpaceOnUse"
       gradientTransform="matrix(0,17.725007,-17.701781,0,231.84616,-42.206996)"
       spreadMethod="pad" />
    <linearGradient
       x1="0"
       y1="0"
       x2="1"
       y2="0"
       id="linearGradient2894"
       gradientUnits="userSpaceOnUse"
       gradientTransform="matrix(0,-56.68848,-56.68848,0,181.0676,1846.7126)"
       spreadMethod="pad">
      <stop
         id="stop2896"
         style="stop-color:#ffffff;stop-opacity:1"
         offset="0" />
      <stop
         id="stop2898"
         style="stop-color:#c9cfd2;stop-opacity:1"
         offset="0.70787001" />
      <stop
         id="stop2900"
         style="stop-color:#c9cfd2;stop-opacity:1"
         offset="0.70787001" />
      <stop
         id="stop2902"
         style="stop-color:#c9cfd2;stop-opacity:1"
         offset="1" />
    </linearGradient>
    <linearGradient
       x1="0"
       y1="0"
       x2="1"
       y2="0"
       id="linearGradient5944"
       xlink:href="#linearGradient2894"
       gradientUnits="userSpaceOnUse"
       gradientTransform="matrix(0,17.726134,-17.702905,0,223.35687,-42.210908)"
       spreadMethod="pad" />
  </defs>
  <g
     transform="translate(-198.33016,137.55938)"
     id="layer1">
    <path
       d="M 231.7704,-136.9969 L 198.89264,-15.421596 L 276.80147,-15.421596 L 309.67879,-136.9969 L 231.7704,-136.9969"
       id="path2832"
       style="fill:#ffffff;fill-opacity:1;fill-rule:nonzero;stroke:none" />
    <path
       d="M 231.7704,-136.9969 L 198.89264,-15.421596 L 276.80147,-15.421596 L 309.67879,-136.9969 L 231.7704,-136.9969 z"
       id="path2834"
       style="fill:none;stroke:#ffffff;stroke-width:1.12495971;stroke-linecap:butt;stroke-linejoin:miter;stroke-miterlimit:4;stroke-dasharray:none;stroke-opacity:1" />
    <path
       d="M 231.7704,-136.9969 L 198.89264,-15.421596 L 276.80147,-15.421596 L 309.67879,-136.9969 L 231.7704,-136.9969"
       id="path2836"
       style="fill:#c9cfd2;fill-opacity:1;fill-rule:nonzero;stroke:none" />
    <path
       d="M 274.28883,-18.709721 L 203.18479,-18.709721 L 234.28397,-133.70857 L 305.38707,-133.70857 L 274.28883,-18.709721"
       id="path2838"
       style="fill:#181a21;fill-opacity:1;fill-rule:nonzero;stroke:none" />
    <path
       d="M 222.93501,-41.335708 C 222.93501,-41.335708 223.2476,-40.775671 223.35081,-40.591058 C 223.26462,-40.270233 219.00547,-24.354558 219.00547,-24.354558 L 223.56794,-24.354558 L 223.99471,-25.947421 C 223.99471,-25.947421 222.25926,-25.947421 221.67163,-25.947421 C 221.90191,-26.805771 225.98818,-42.077546 225.98818,-42.077546 L 222.51917,-42.080921 L 222.93501,-41.335708"
       id="path2848"
       style="fill:#f0352a;fill-opacity:1;fill-rule:nonzero;stroke:none" />
    <path
       d="M 222.93501,-41.335708 C 222.93501,-41.335708 223.2476,-40.775671 223.35081,-40.591058 C 223.26462,-40.270233 219.00547,-24.354558 219.00547,-24.354558 L 223.56794,-24.354558 L 223.99471,-25.947421 C 223.99471,-25.947421 222.25926,-25.947421 221.67163,-25.947421 C 221.90191,-26.805771 225.98818,-42.077546 225.98818,-42.077546 L 222.51917,-42.080921 L 222.93501,-41.335708 z"
       id="path2850"
       style="fill:none;stroke:#f0352a;stroke-width:0.24749114;stroke-linecap:butt;stroke-linejoin:miter;stroke-miterlimit:4;stroke-dasharray:none;stroke-opacity:1" />
    <path
       d="M 231.72543,-30.481733 L 230.403,-30.478358 L 233.47184,-39.003833 L 231.72543,-30.481733 z M 236.04029,-42.072483 L 235.65031,-42.072483 L 231.30328,-42.077546 C 231.30328,-42.077546 231.93397,-40.857283 232.04324,-40.646221 C 231.53931,-39.501946 225.96076,-24.357383 225.96076,-24.357383 L 226.46222,-24.354558 L 228.22672,-24.354558 C 228.22672,-24.354558 229.40997,-27.866746 229.79807,-28.858446 L 231.4183,-28.861296 C 231.25247,-27.983246 230.44669,-24.352346 230.44669,-24.352346 L 230.87455,-24.354558 L 232.77854,-24.354558 L 236.04029,-42.072483"
       id="path2852"
       style="fill:#f0352a;fill-opacity:1;fill-rule:nonzero;stroke:none" />
    <path
       d="M 231.72543,-30.481733 L 230.403,-30.478358 L 233.47184,-39.003833 L 231.72543,-30.481733 z M 236.04029,-42.072483 L 235.65031,-42.072483 L 231.30328,-42.077546 C 231.30328,-42.077546 231.93397,-40.857283 232.04324,-40.646221 C 231.53931,-39.501946 225.96076,-24.357383 225.96076,-24.357383 L 226.46222,-24.354558 L 228.22672,-24.354558 C 228.22672,-24.354558 229.40997,-27.866746 229.79807,-28.858446 L 231.4183,-28.861296 C 231.25247,-27.983246 230.44669,-24.352346 230.44669,-24.352346 L 230.87455,-24.354558 L 232.77854,-24.354558 L 236.04029,-42.072483 z"
       id="path2854"
       style="fill:none;stroke:#f0352a;stroke-width:0.24749114;stroke-linecap:butt;stroke-linejoin:miter;stroke-miterlimit:4;stroke-dasharray:none;stroke-opacity:1" />
    <path
       d="M 245.62007,-42.077546 L 239.82988,-42.077546 L 240.70931,-40.541533 C 240.70931,-40.541533 242.3284,-40.541533 243.01896,-40.541533 C 242.55484,-39.531221 235.57976,-24.354558 235.57976,-24.354558 L 241.50223,-24.354558 L 241.92846,-25.947421 C 241.92846,-25.947421 239.49177,-25.947421 238.72793,-25.947421 C 239.19454,-26.958271 246.17068,-42.077546 246.17068,-42.077546 L 245.62007,-42.077546"
       id="path2856"
       style="fill:#f0352a;fill-opacity:1;fill-rule:nonzero;stroke:none" />
    <path
       d="M 245.62007,-42.077546 L 239.82988,-42.077546 L 240.70931,-40.541533 C 240.70931,-40.541533 242.3284,-40.541533 243.01896,-40.541533 C 242.55484,-39.531221 235.57976,-24.354558 235.57976,-24.354558 L 241.50223,-24.354558 L 241.92846,-25.947421 C 241.92846,-25.947421 239.49177,-25.947421 238.72793,-25.947421 C 239.19454,-26.958271 246.17068,-42.077546 246.17068,-42.077546 L 245.62007,-42.077546 z"
       id="path2858"
       style="fill:none;stroke:#f0352a;stroke-width:0.24749114;stroke-linecap:butt;stroke-linejoin:miter;stroke-miterlimit:4;stroke-dasharray:none;stroke-opacity:1" />
    <path
       d="M 254.87857,-42.077546 L 249.24827,-42.077546 C 249.24827,-42.077546 249.99207,-40.773421 250.09831,-40.588808 C 250.01156,-40.264608 245.75375,-24.354558 245.75375,-24.354558 L 250.60634,-24.354558 L 251.03535,-25.958683 C 251.03535,-25.958683 249.04301,-25.958683 248.42322,-25.958683 C 248.62608,-26.717971 250.09972,-32.224883 250.30308,-32.984158 C 250.89264,-32.984158 252.64236,-32.984158 252.64236,-32.984158 L 253.0686,-34.576458 C 253.0686,-34.576458 251.31859,-34.576458 250.72934,-34.576458 C 250.92636,-35.313233 252.12528,-39.792971 252.3223,-40.530271 C 252.94044,-40.530271 254.91792,-40.530271 254.91792,-40.530271 L 255.33163,-42.077546 L 254.87857,-42.077546"
       id="path2860"
       style="fill:#f0352a;fill-opacity:1;fill-rule:nonzero;stroke:none" />
    <path
       d="M 254.87857,-42.077546 L 249.24827,-42.077546 C 249.24827,-42.077546 249.99207,-40.773421 250.09831,-40.588808 C 250.01156,-40.264608 245.75375,-24.354558 245.75375,-24.354558 L 250.60634,-24.354558 L 251.03535,-25.958683 C 251.03535,-25.958683 249.04301,-25.958683 248.42322,-25.958683 C 248.62608,-26.717971 250.09972,-32.224883 250.30308,-32.984158 C 250.89264,-32.984158 252.64236,-32.984158 252.64236,-32.984158 L 253.0686,-34.576458 C 253.0686,-34.576458 251.31859,-34.576458 250.72934,-34.576458 C 250.92636,-35.313233 252.12528,-39.792971 252.3223,-40.530271 C 252.94044,-40.530271 254.91792,-40.530271 254.91792,-40.530271 L 255.33163,-42.077546 L 254.87857,-42.077546 z"
       id="path2862"
       style="fill:none;stroke:#f0352a;stroke-width:0.24749114;stroke-linecap:butt;stroke-linejoin:miter;stroke-miterlimit:4;stroke-dasharray:none;stroke-opacity:1" />
    <path
       d="M 262.59579,-40.580333 C 262.83806,-40.487471 262.8538,-40.273621 262.73351,-39.823333 L 261.63233,-35.710633 C 261.46595,-35.085833 261.34734,-34.985058 261.22368,-34.874771 C 261.07919,-34.747008 260.765,-34.580958 260.07641,-34.580958 C 260.07641,-34.580958 259.9713,-34.580958 259.89878,-34.580958 C 260.09721,-35.321671 261.51991,-40.638346 261.51991,-40.638346 C 261.51991,-40.638346 262.32148,-40.685621 262.59579,-40.580333 z M 262.35577,-42.078671 L 262.34846,-42.078671 L 258.41593,-42.078671 C 258.41593,-42.078671 259.16129,-40.774546 259.26697,-40.588808 C 259.17984,-40.264608 254.91904,-24.342746 254.91904,-24.342746 L 257.15905,-24.342746 C 257.15905,-24.342746 259.25292,-32.168621 259.47214,-32.985283 C 259.52442,-32.985283 259.66101,-32.985283 259.66101,-32.985283 C 260.08765,-32.985283 260.38389,-32.945321 260.54858,-32.799546 C 260.69811,-32.667846 260.75544,-32.432571 260.6374,-31.990171 L 258.59075,-24.342746 L 260.83076,-24.342746 L 262.82232,-31.786421 C 263.00389,-32.464083 263.15622,-33.108521 262.68629,-33.552071 C 262.52047,-33.709108 262.30125,-33.775521 262.30125,-33.775521 C 262.30125,-33.775521 262.51091,-33.832408 262.81333,-34.000108 C 263.00782,-34.108171 263.21355,-34.249446 263.37769,-34.454883 C 263.51484,-34.631621 263.63176,-34.810608 263.7425,-35.224296 L 264.91225,-39.595383 C 264.91225,-39.595383 264.94935,-39.736096 264.95722,-39.762546 C 265.1208,-40.374396 265.28493,-41.112258 264.58342,-41.614883 C 263.93699,-42.083171 263.10169,-42.078671 262.35577,-42.078671"
       id="path2864"
       style="fill:#f0352a;fill-opacity:1;fill-rule:nonzero;stroke:none" />
    <path
       d="M 262.59579,-40.580333 C 262.83806,-40.487471 262.8538,-40.273621 262.73351,-39.823333 L 261.63233,-35.710633 C 261.46595,-35.085833 261.34734,-34.985058 261.22368,-34.874771 C 261.07919,-34.747008 260.765,-34.580958 260.07641,-34.580958 C 260.07641,-34.580958 259.9713,-34.580958 259.89878,-34.580958 C 260.09721,-35.321671 261.51991,-40.638346 261.51991,-40.638346 C 261.51991,-40.638346 262.32148,-40.685621 262.59579,-40.580333 z M 262.35577,-42.078671 L 262.34846,-42.078671 L 258.41593,-42.078671 C 258.41593,-42.078671 259.16129,-40.774546 259.26697,-40.588808 C 259.17984,-40.264608 254.91904,-24.342746 254.91904,-24.342746 L 257.15905,-24.342746 C 257.15905,-24.342746 259.25292,-32.168621 259.47214,-32.985283 C 259.52442,-32.985283 259.66101,-32.985283 259.66101,-32.985283 C 260.08765,-32.985283 260.38389,-32.945321 260.54858,-32.799546 C 260.69811,-32.667846 260.75544,-32.432571 260.6374,-31.990171 L 258.59075,-24.342746 L 260.83076,-24.342746 L 262.82232,-31.786421 C 263.00389,-32.464083 263.15622,-33.108521 262.68629,-33.552071 C 262.52047,-33.709108 262.30125,-33.775521 262.30125,-33.775521 C 262.30125,-33.775521 262.51091,-33.832408 262.81333,-34.000108 C 263.00782,-34.108171 263.21355,-34.249446 263.37769,-34.454883 C 263.51484,-34.631621 263.63176,-34.810608 263.7425,-35.224296 L 264.91225,-39.595383 C 264.91225,-39.595383 264.94935,-39.736096 264.95722,-39.762546 C 265.1208,-40.374396 265.28493,-41.112258 264.58342,-41.614883 C 263.93699,-42.083171 263.10169,-42.078671 262.35577,-42.078671 z"
       id="path2866"
       style="fill:none;stroke:#f0352a;stroke-width:0.24749114;stroke-linecap:butt;stroke-linejoin:miter;stroke-miterlimit:4;stroke-dasharray:none;stroke-opacity:1" />
    <path
       d="M 273.32593,-36.647183 L 274.13537,-39.673021 C 274.29558,-40.273621 274.43498,-40.956321 274.05443,-41.474146 C 273.70592,-41.946396 272.9808,-42.174358 271.8369,-42.168696 C 271.43443,-42.166508 271.07805,-42.135483 270.76102,-42.079796 L 267.85828,-42.082046 L 268.27312,-41.336271 L 268.61881,-40.718833 C 268.42994,-40.395758 268.30572,-40.044508 268.21297,-39.696133 L 267.99318,-38.874933 C 267.80263,-38.162933 267.6576,-37.432921 267.63849,-36.837983 C 267.61826,-36.243646 267.8015,-35.515883 267.98869,-34.996908 C 268.17587,-34.478558 269.28432,-31.767871 269.3563,-31.383983 C 269.42825,-30.998996 269.50414,-30.736708 269.2377,-29.739896 L 268.28661,-26.187758 C 268.17756,-25.780821 268.11797,-25.555708 267.42096,-25.548371 C 266.72394,-25.548371 266.74474,-25.838233 266.83748,-26.187758 L 268.04037,-30.682108 L 265.79589,-30.663533 L 264.74474,-26.735408 C 264.57667,-26.105583 264.47156,-25.454371 264.84143,-24.951183 C 265.19837,-24.467696 265.9347,-24.235246 267.09493,-24.239746 C 269.65647,-24.253246 270.32538,-25.435833 270.66715,-26.712333 C 270.66715,-26.712333 271.34899,-29.263133 271.52437,-29.915508 C 271.82341,-31.034458 271.75483,-31.541583 271.63454,-32.135946 C 271.51481,-32.729758 271.28491,-33.267271 271.11234,-33.698421 L 270.29784,-35.818108 C 270.064,-36.404033 269.95664,-36.825571 269.95945,-37.359183 C 269.96338,-37.893333 270.1264,-38.478133 270.32819,-39.228971 L 270.59295,-40.220708 C 270.68738,-40.573646 270.76271,-40.852783 271.51088,-40.860671 C 271.79193,-40.864046 271.97799,-40.814508 272.04938,-40.717708 C 272.11234,-40.632708 272.10952,-40.474546 272.04207,-40.220708 L 271.08648,-36.647183 L 273.32593,-36.647183"
       id="path2868"
       style="fill:#f0352a;fill-opacity:1;fill-rule:nonzero;stroke:none" />
    <path
       d="M 273.32593,-36.647183 L 274.13537,-39.673021 C 274.29558,-40.273621 274.43498,-40.956321 274.05443,-41.474146 C 273.70592,-41.946396 272.9808,-42.174358 271.8369,-42.168696 C 271.43443,-42.166508 271.07805,-42.135483 270.76102,-42.079796 L 267.85828,-42.082046 L 268.27312,-41.336271 L 268.61881,-40.718833 C 268.42994,-40.395758 268.30572,-40.044508 268.21297,-39.696133 L 267.99318,-38.874933 C 267.80263,-38.162933 267.6576,-37.432921 267.63849,-36.837983 C 267.61826,-36.243646 267.8015,-35.515883 267.98869,-34.996908 C 268.17587,-34.478558 269.28432,-31.767871 269.3563,-31.383983 C 269.42825,-30.998996 269.50414,-30.736708 269.2377,-29.739896 L 268.28661,-26.187758 C 268.17756,-25.780821 268.11797,-25.555708 267.42096,-25.548371 C 266.72394,-25.548371 266.74474,-25.838233 266.83748,-26.187758 L 268.04037,-30.682108 L 265.79589,-30.663533 L 264.74474,-26.735408 C 264.57667,-26.105583 264.47156,-25.454371 264.84143,-24.951183 C 265.19837,-24.467696 265.9347,-24.235246 267.09493,-24.239746 C 269.65647,-24.253246 270.32538,-25.435833 270.66715,-26.712333 C 270.66715,-26.712333 271.34899,-29.263133 271.52437,-29.915508 C 271.82341,-31.034458 271.75483,-31.541583 271.63454,-32.135946 C 271.51481,-32.729758 271.28491,-33.267271 271.11234,-33.698421 L 270.29784,-35.818108 C 270.064,-36.404033 269.95664,-36.825571 269.95945,-37.359183 C 269.96338,-37.893333 270.1264,-38.478133 270.32819,-39.228971 L 270.59295,-40.220708 C 270.68738,-40.573646 270.76271,-40.852783 271.51088,-40.860671 C 271.79193,-40.864046 271.97799,-40.814508 272.04938,-40.717708 C 272.11234,-40.632708 272.10952,-40.474546 272.04207,-40.220708 L 271.08648,-36.647183 L 273.32593,-36.647183 z"
       id="path2870"
       style="fill:none;stroke:#f0352a;stroke-width:0.24749114;stroke-linecap:butt;stroke-linejoin:miter;stroke-miterlimit:4;stroke-dasharray:none;stroke-opacity:1" />
    <path
       d="M 217.16653,-31.786421 C 217.3479,-32.464083 217.49995,-33.108521 217.03065,-33.552071 C 216.86461,-33.709108 216.64498,-33.775521 216.64498,-33.775521 C 216.64498,-33.775521 216.85499,-33.832408 217.15825,-34.000108 C 217.35231,-34.108171 217.55791,-34.249446 217.72177,-34.454883 C 217.85927,-34.631621 217.97647,-34.810608 218.08652,-35.224296 L 219.29531,-39.741158 C 219.3093,-39.789571 219.32272,-39.839058 219.33615,-39.889783 C 219.48961,-40.463296 219.61205,-41.134208 218.95769,-41.602471 C 218.27258,-42.100621 217.31583,-42.077546 216.86214,-42.077546 L 216.802,-42.077546 L 212.78684,-42.077546 C 212.78684,-42.077546 213.49054,-40.757696 213.58906,-40.573646 C 213.50509,-40.260108 209.24919,-24.354558 209.24919,-24.354558 C 209.24919,-24.354558 211.39717,-24.352346 211.8997,-24.352346 C 212.64216,-24.352346 213.61545,-24.268446 214.55715,-24.805433 C 215.52104,-25.354746 215.68193,-26.240671 215.83179,-26.799583 L 217.16653,-31.786421 z M 213.45844,-26.383633 C 213.38105,-26.095421 213.29761,-25.944046 213.13485,-25.851771 C 212.97262,-25.760558 212.72888,-25.730733 212.26614,-25.730733 C 212.17857,-25.730733 212.04163,-25.730733 211.84209,-25.730733 L 213.79083,-32.985283 L 213.98048,-32.985283 C 214.40672,-32.985283 214.70289,-32.945321 214.86784,-32.799546 C 215.01711,-32.667846 215.07479,-32.432571 214.95646,-31.990171 L 213.45844,-26.383633 z M 216.91508,-40.580333 C 217.15769,-40.487471 217.17337,-40.273621 217.05258,-39.823333 L 215.95168,-35.710633 C 215.78508,-35.085833 215.66681,-34.985058 215.54246,-34.874771 C 215.39841,-34.747008 215.08547,-34.580958 214.39604,-34.580958 C 214.39604,-34.580958 214.29008,-34.580958 214.21841,-34.580958 C 214.41662,-35.321671 215.83941,-40.638346 215.83941,-40.638346 C 215.83941,-40.638346 216.64061,-40.685621 216.91508,-40.580333"
       id="path2872"
       style="fill:#f0352a;fill-opacity:1;fill-rule:nonzero;stroke:none" />
    <path
       d="M 217.16653,-31.786421 C 217.3479,-32.464083 217.49995,-33.108521 217.03065,-33.552071 C 216.86461,-33.709108 216.64498,-33.775521 216.64498,-33.775521 C 216.64498,-33.775521 216.85499,-33.832408 217.15825,-34.000108 C 217.35231,-34.108171 217.55791,-34.249446 217.72177,-34.454883 C 217.85927,-34.631621 217.97647,-34.810608 218.08652,-35.224296 L 219.29531,-39.741158 C 219.3093,-39.789571 219.32272,-39.839058 219.33615,-39.889783 C 219.48961,-40.463296 219.61205,-41.134208 218.95769,-41.602471 C 218.27258,-42.100621 217.31583,-42.077546 216.86214,-42.077546 L 216.802,-42.077546 L 212.78684,-42.077546 C 212.78684,-42.077546 213.49054,-40.757696 213.58906,-40.573646 C 213.50509,-40.260108 209.24919,-24.354558 209.24919,-24.354558 C 209.24919,-24.354558 211.39717,-24.352346 211.8997,-24.352346 C 212.64216,-24.352346 213.61545,-24.268446 214.55715,-24.805433 C 215.52104,-25.354746 215.68193,-26.240671 215.83179,-26.799583 L 217.16653,-31.786421 z M 213.45844,-26.383633 C 213.38105,-26.095421 213.29761,-25.944046 213.13485,-25.851771 C 212.97262,-25.760558 212.72888,-25.730733 212.26614,-25.730733 C 212.17857,-25.730733 212.04163,-25.730733 211.84209,-25.730733 L 213.79083,-32.985283 L 213.98048,-32.985283 C 214.40672,-32.985283 214.70289,-32.945321 214.86784,-32.799546 C 215.01711,-32.667846 215.07479,-32.432571 214.95646,-31.990171 L 213.45844,-26.383633 z M 216.91508,-40.580333 C 217.15769,-40.487471 217.17337,-40.273621 217.05258,-39.823333 L 215.95168,-35.710633 C 215.78508,-35.085833 215.66681,-34.985058 215.54246,-34.874771 C 215.39841,-34.747008 215.08547,-34.580958 214.39604,-34.580958 C 214.39604,-34.580958 214.29008,-34.580958 214.21841,-34.580958 C 214.41662,-35.321671 215.83941,-40.638346 215.83941,-40.638346 C 215.83941,-40.638346 216.64061,-40.685621 216.91508,-40.580333 z"
       id="path2874"
       style="fill:none;stroke:#f0352a;stroke-width:0.24749114;stroke-linecap:butt;stroke-linejoin:miter;stroke-miterlimit:4;stroke-dasharray:none;stroke-opacity:1" />
    <path
       d="M 223.27121,-42.026321 C 223.27121,-42.026321 224.0345,-40.657446 224.0779,-40.580333 C 224.05211,-40.483558 219.70449,-24.236371 219.70449,-24.236371 L 224.52225,-24.236371 L 225.01522,-26.076321 C 225.01522,-26.076321 222.97179,-26.076321 222.69264,-26.076321 C 222.77443,-26.382508 227.00891,-42.205871 227.00891,-42.205871 L 223.16856,-42.210908 L 223.27121,-42.026321"
       id="path2904"
       style="fill:url(#linearGradient5944);stroke:none" />
    <path
       d="M 233.8646,-37.348496 C 233.42625,-35.209658 232.51588,-30.765408 232.48406,-30.611196 C 232.33688,-30.611196 231.68011,-30.610058 231.43859,-30.609496 C 231.53109,-30.866721 233.11806,-35.273833 233.8646,-37.348496 z M 232.05286,-42.025758 C 232.05286,-42.025758 232.7179,-40.739621 232.76646,-40.645658 C 232.18046,-39.267808 226.9299,-25.018196 226.70424,-24.405783 L 226.64332,-24.240308 L 227.321,-24.236371 L 229.17422,-24.236371 C 229.17422,-24.236371 230.69261,-28.588908 230.74554,-28.740283 C 230.88635,-28.740846 231.88788,-28.742533 232.12446,-28.743096 C 232.06516,-28.467858 231.15342,-24.234108 231.15342,-24.234108 L 231.73476,-24.236371 L 233.74081,-24.236371 L 237.04903,-42.201371 L 231.95926,-42.206996 L 232.05286,-42.025758"
       id="path2926"
       style="fill:url(#linearGradient5939);stroke:none" />
    <path
       d="M 247.03003,-42.206408 L 240.47681,-42.206408 L 241.49704,-40.423296 C 241.49704,-40.423296 243.36097,-40.423296 243.68534,-40.423296 C 243.52729,-40.079996 236.24614,-24.236371 236.24614,-24.236371 L 242.45657,-24.236371 L 242.94923,-26.076321 C 242.94923,-26.076321 240.12274,-26.076321 239.78132,-26.076321 C 239.93996,-26.420808 247.22327,-42.206408 247.22327,-42.206408 L 247.03003,-42.206408"
       id="path2948"
       style="fill:url(#linearGradient5934);stroke:none" />
    <path
       d="M 256.19222,-42.206408 L 249.89439,-42.206408 C 249.89439,-42.206408 250.77762,-40.660858 250.8254,-40.577558 C 250.79905,-40.479058 246.45199,-24.236371 246.45199,-24.236371 L 251.56071,-24.236371 L 252.05664,-26.088733 C 252.05664,-26.088733 249.72747,-26.088733 249.44373,-26.088733 C 249.52249,-26.382508 251.21073,-32.690946 251.25767,-32.865958 C 251.43226,-32.865958 253.59695,-32.865958 253.59695,-32.865958 L 254.08936,-34.705883 C 254.08936,-34.705883 252.02923,-34.705883 251.74979,-34.705883 C 251.82777,-34.997471 253.23027,-40.238158 253.27664,-40.412108 C 253.45287,-40.412108 255.87294,-40.412108 255.87294,-40.412108 L 256.35295,-42.206408 L 256.19222,-42.206408"
       id="path2970"
       style="fill:url(#linearGradient5929);stroke:none" />
    <path
       d="M 263.41138,-40.470608 C 263.48618,-40.441908 263.54351,-40.403096 263.54351,-40.257858 C 263.54351,-40.170608 263.52271,-40.045658 263.47322,-39.859921 L 262.3732,-35.748871 C 262.21637,-35.165758 262.1135,-35.074021 262.00445,-34.977208 C 261.86617,-34.853383 261.57163,-34.709858 260.93644,-34.709858 C 260.93644,-34.709858 260.92239,-34.709858 260.91958,-34.709858 C 260.99771,-35.001408 262.42997,-40.354108 262.47494,-40.522396 C 262.72901,-40.534208 263.22536,-40.541533 263.41138,-40.470608 z M 263.23772,-42.207558 L 259.06236,-42.207558 C 259.06236,-42.207558 259.946,-40.660858 259.99378,-40.578146 C 259.96736,-40.479621 255.61774,-24.225108 255.61774,-24.225108 L 258.11408,-24.225108 C 258.11408,-24.225108 260.37826,-32.686971 260.42661,-32.867083 C 260.47326,-32.867083 260.52048,-32.867083 260.52048,-32.867083 C 260.96398,-32.867083 261.20513,-32.820933 261.32655,-32.712833 C 261.3732,-32.671783 261.51485,-32.545133 261.3777,-32.027321 L 259.28942,-24.225108 L 261.78523,-24.225108 L 263.80152,-31.759396 C 263.88974,-32.088108 263.98361,-32.439321 263.98361,-32.772558 C 263.98361,-33.093321 263.89596,-33.397296 263.63117,-33.647758 C 263.63117,-33.647758 263.53171,-33.705171 263.42884,-33.764833 C 263.57893,-33.830683 263.73351,-33.898196 263.73351,-33.898196 C 263.99489,-34.042883 264.18544,-34.197071 264.3344,-34.382846 C 264.47212,-34.561821 264.60422,-34.757108 264.7217,-35.197846 L 265.93642,-39.737246 C 266.00331,-39.987158 266.08538,-40.294446 266.08538,-40.609046 C 266.08538,-41.000846 265.95778,-41.403821 265.51484,-41.721258 C 264.84311,-42.207558 263.99039,-42.207558 263.23772,-42.207558"
       id="path2992"
       style="fill:url(#linearGradient5924);stroke:none" />
    <path
       d="M 272.69581,-42.297621 L 271.59913,-42.206996 C 271.62049,-42.208721 268.71775,-42.210908 268.71775,-42.210908 L 268.50695,-42.211508 C 268.50695,-42.211508 269.2748,-40.834808 269.34225,-40.713758 C 269.18767,-40.435158 269.05614,-40.121646 268.95327,-39.734408 L 268.73348,-38.913771 C 268.51258,-38.088071 268.39169,-37.392958 268.3743,-36.847558 C 268.37317,-36.816033 268.37261,-36.785083 268.37261,-36.753558 C 268.37261,-36.016221 268.6458,-35.200658 268.73236,-34.960321 L 269.13764,-33.920183 C 269.5002,-33.002708 270.0477,-31.615871 270.09436,-31.367633 L 270.10616,-31.304058 C 270.13427,-31.156033 270.16012,-31.020946 270.16012,-30.841396 C 270.16012,-30.606683 270.11628,-30.295996 269.978,-29.778171 L 269.02688,-26.226071 C 268.92179,-25.832071 268.88188,-25.684571 268.2793,-25.678383 C 267.96283,-25.678383 267.8476,-25.741983 267.80656,-25.794896 C 267.7526,-25.865283 267.77171,-25.993021 267.81724,-26.161871 L 269.06176,-30.813258 L 266.56036,-30.791871 L 265.48504,-26.772596 C 265.30854,-26.114596 265.20062,-25.429046 265.60196,-24.883083 C 265.98307,-24.365221 266.75261,-24.116483 267.95496,-24.122671 C 270.59969,-24.135083 271.29222,-25.362058 271.64631,-26.685846 L 272.503,-29.889583 C 272.80598,-31.022033 272.74078,-31.547771 272.61542,-32.165783 C 272.50525,-32.710646 272.30402,-33.211546 272.14213,-33.613983 L 272.0876,-33.750171 L 271.27254,-35.868196 C 271.02634,-36.486208 270.9403,-36.877383 270.94255,-37.364246 C 270.94595,-37.856183 271.0921,-38.401583 271.27704,-39.092196 L 271.57215,-40.194258 C 271.66265,-40.531958 271.71717,-40.736271 272.37147,-40.743033 C 272.72054,-40.746408 272.79752,-40.665921 272.80935,-40.649596 C 272.82678,-40.626558 272.85826,-40.542621 272.78181,-40.257858 L 271.78462,-36.529546 L 274.2804,-36.529546 L 275.11457,-39.647721 C 275.28264,-40.275871 275.42711,-40.992371 275.01283,-41.553558 C 274.64015,-42.060658 273.88186,-42.303846 272.69581,-42.297621"
       id="path3014"
       style="fill:url(#linearGradient5919);stroke:none" />
    <path
       d="M 214.83982,-32.867083 C 215.28367,-32.867083 215.52438,-32.820933 215.64539,-32.713433 C 215.67778,-32.684133 215.75544,-32.615521 215.75544,-32.406683 C 215.75544,-32.312146 215.73955,-32.189421 215.69642,-32.027321 L 214.19867,-26.420808 C 214.12679,-26.154558 214.0573,-26.035196 213.93383,-25.965433 C 213.79739,-25.888321 213.57867,-25.859621 213.12635,-25.859621 C 213.12635,-25.859621 212.98717,-25.859621 212.8631,-25.859621 C 212.94214,-26.155146 214.69823,-32.692046 214.74517,-32.867083 C 214.79261,-32.867083 214.83982,-32.867083 214.83982,-32.867083 z M 217.73054,-40.470046 C 217.80546,-40.441908 217.8628,-40.403096 217.8628,-40.257258 C 217.8628,-40.170608 217.84225,-40.045133 217.79281,-39.859921 L 216.69248,-35.748871 C 216.53634,-35.166296 216.43313,-35.074021 216.32386,-34.977208 C 216.18502,-34.853383 215.89054,-34.709858 215.25569,-34.709858 C 215.25569,-34.709858 215.24192,-34.709858 215.23892,-34.709858 C 215.31684,-35.001971 216.74932,-40.354108 216.79435,-40.522396 C 217.0482,-40.534208 217.54392,-40.541533 217.73054,-40.470046 z M 217.77558,-42.207558 L 217.66162,-42.206408 L 213.44085,-42.206408 C 213.44085,-42.206408 214.27334,-40.645096 214.31669,-40.563483 C 214.29142,-40.469521 209.94743,-24.236371 209.94743,-24.236371 L 212.75992,-24.234108 L 213.02342,-24.231858 C 213.73262,-24.222296 214.61504,-24.211596 215.47716,-24.703496 C 216.4142,-25.237108 216.63212,-26.082508 216.7762,-26.642546 L 218.14526,-31.759396 C 218.23363,-32.088108 218.32779,-32.439883 218.32779,-32.773096 C 218.32779,-33.093921 218.24022,-33.397858 217.97484,-33.647758 C 217.97456,-33.647758 217.87572,-33.705171 217.77308,-33.764271 C 217.92294,-33.830683 218.07746,-33.898196 218.07746,-33.898196 C 218.33931,-34.042883 218.53008,-34.197071 218.67826,-34.382846 C 218.81576,-34.560171 218.9478,-34.755446 219.06556,-35.197846 L 220.27432,-39.715233 C 220.27375,-39.712458 220.31519,-39.863858 220.31519,-39.863858 C 220.43598,-40.315271 220.66105,-41.156158 219.88921,-41.708883 C 219.19837,-42.210383 218.27286,-42.208721 217.77558,-42.207558"
       id="path3036"
       style="fill:url(#linearGradient5914);stroke:none" />
    <path
       d="M 74.375,95.375 C 73.972529,95.377247 73.59828,95.413025 73.28125,95.46875 L 70.375,95.46875 L 70.8125,96.21875 L 71.15625,96.84375 C 70.96741,97.167361 70.84219,97.49595 70.75,97.84375 L 70.53125,98.6875 C 70.340142,99.400603 70.17536,100.12385 70.15625,100.71875 C 70.136579,101.31255 70.34406,102.04467 70.53125,102.5625 C 70.717868,103.08144 71.80305,105.77179 71.875,106.15625 C 71.946388,106.54123 72.04825,106.81682 71.78125,107.8125 L 70.8125,111.375 C 70.70345,111.78307 70.63452,111.99325 69.9375,112 C 69.240494,112 69.28113,111.7251 69.375,111.375 L 70.5625,106.875 L 68.3125,106.90625 L 67.28125,110.8125 C 67.112618,111.44176 67.00401,112.09056 67.375,112.59375 C 67.730253,113.07724 68.46477,113.31869 69.625,113.3125 C 72.186543,113.30009 72.84629,112.1203 73.1875,110.84375 C 73.187503,110.84375 73.88768,108.27678 74.0625,107.625 C 74.36154,106.50549 74.27598,106.00005 74.15625,105.40625 C 74.035957,104.81131 73.82826,104.27486 73.65625,103.84375 L 72.8125,101.75 C 72.578662,101.16354 72.49663,100.72051 72.5,100.1875 C 72.503371,99.65335 72.64308,99.063338 72.84375,98.3125 L 73.125,97.34375 C 73.219432,96.989789 73.28364,96.69535 74.03125,96.6875 C 74.312871,96.685252 74.52236,96.746937 74.59375,96.84375 C 74.6567,96.92874 74.63051,97.088813 74.5625,97.34375 L 73.625,100.90625 L 75.84375,100.90625 L 76.65625,97.875 C 76.816463,97.275577 76.97542,96.611 76.59375,96.09375 C 76.246357,95.62149 75.51946,95.369337 74.375,95.375 z M 15.3125,95.46875 C 15.3125,95.468747 16.02701,96.7847 16.125,96.96875 C 16.041029,97.281701 11.78125,113.1875 11.78125,113.1875 C 11.78125,113.1875 13.93441,113.1875 14.4375,113.1875 C 15.17936,113.1875 16.15262,113.28696 17.09375,112.75 C 18.05824,112.20066 18.22513,111.31 18.375,110.75 L 19.6875,105.78125 C 19.869471,105.10189 20.03264,104.44299 19.5625,104 C 19.39696,103.843 19.1875,103.78125 19.1875,103.78125 C 19.1875,103.78125 19.38452,103.73079 19.6875,103.5625 C 19.881801,103.455 20.08615,103.29979 20.25,103.09375 C 20.38697,102.91705 20.51464,102.75801 20.625,102.34375 L 21.8125,97.8125 C 21.82649,97.764085 21.86182,97.706912 21.875,97.65625 C 22.02873,97.082715 22.15408,96.405762 21.5,95.9375 C 20.81491,95.439949 19.86022,95.46875 19.40625,95.46875 L 19.34375,95.46875 L 15.3125,95.46875 z M 25.0625,95.46875 L 25.46875,96.21875 C 25.46875,96.218751 25.77182,96.784175 25.875,96.96875 C 25.78912,97.289012 21.53125,113.1875 21.53125,113.1875 L 26.09375,113.1875 L 26.53125,111.59375 C 26.53125,111.59375 24.7754,111.59375 24.1875,111.59375 C 24.41724,110.73485 28.53125,95.46875 28.53125,95.46875 L 25.0625,95.46875 z M 33.84375,95.46875 C 33.843752,95.468747 34.45405,96.695738 34.5625,96.90625 C 34.059381,98.051052 28.5,113.1875 28.5,113.1875 L 29,113.1875 L 30.75,113.1875 C 30.75,113.1875 31.92414,109.67867 32.3125,108.6875 L 33.9375,108.6875 C 33.771741,109.56614 32.96875,113.1875 32.96875,113.1875 L 33.40625,113.1875 L 35.3125,113.1875 L 38.5625,95.46875 L 38.1875,95.46875 L 33.84375,95.46875 z M 42.375,95.46875 L 43.25,97 C 43.249998,97.000002 44.87217,97 45.5625,97 C 45.098362,98.009127 38.09375,113.1875 38.09375,113.1875 L 44.03125,113.1875 L 44.46875,111.59375 C 44.468752,111.59375 42.01357,111.59375 41.25,111.59375 C 41.71627,110.58232 48.6875,95.46875 48.6875,95.46875 L 48.15625,95.46875 L 42.375,95.46875 z M 51.78125,95.46875 C 51.781251,95.468747 52.51932,96.784125 52.625,96.96875 C 52.537989,97.292946 48.28125,113.1875 48.28125,113.1875 L 53.125,113.1875 L 53.5625,111.59375 C 53.5625,111.59375 51.55729,111.59375 50.9375,111.59375 C 51.14036,110.8351 52.64058,105.32062 52.84375,104.5625 C 53.433561,104.5625 55.15625,104.5625 55.15625,104.5625 L 55.59375,102.96875 C 55.593751,102.96875 53.84012,102.96875 53.25,102.96875 C 53.44736,102.23205 54.64695,97.768612 54.84375,97.03125 C 55.462139,97.031252 57.4375,97.03125 57.4375,97.03125 L 57.875,95.46875 L 57.40625,95.46875 L 51.78125,95.46875 z M 60.9375,95.46875 C 60.9375,95.468752 61.67557,96.783563 61.78125,96.96875 C 61.69412,97.293511 57.4375,113.21875 57.4375,113.21875 L 59.6875,113.21875 C 59.687501,113.21875 61.78134,105.37806 62,104.5625 C 62.05228,104.5625 62.1875,104.5625 62.1875,104.5625 C 62.614141,104.5625 62.92849,104.60369 63.09375,104.75 C 63.242711,104.8823 63.27429,105.11957 63.15625,105.5625 L 61.125,113.21875 L 63.375,113.21875 L 65.34375,105.78125 C 65.525879,105.10189 65.68812,104.44299 65.21875,104 C 65.052366,103.843 64.84375,103.78125 64.84375,103.78125 C 64.843749,103.78125 65.04133,103.73079 65.34375,103.5625 C 65.537679,103.455 65.74155,103.29979 65.90625,103.09375 C 66.042278,102.91705 66.17051,102.75801 66.28125,102.34375 L 67.4375,97.96875 C 67.437501,97.968753 67.49325,97.8077 67.5,97.78125 C 67.663574,97.168301 67.82651,96.44015 67.125,95.9375 C 66.478568,95.469236 65.62092,95.46875 64.875,95.46875 L 60.9375,95.46875 z M 18.375,96.90625 C 18.375001,96.906254 19.16272,96.8635 19.4375,96.96875 C 19.680119,97.062191 19.71454,97.267875 19.59375,97.71875 L 18.46875,101.84375 C 18.301549,102.46795 18.18598,102.57778 18.0625,102.6875 C 17.917851,102.81643 17.62609,102.96875 16.9375,102.96875 C 16.937501,102.96875 16.82167,102.96875 16.75,102.96875 C 16.94846,102.22805 18.375,96.90625 18.375,96.90625 z M 64.0625,96.90625 C 64.062503,96.906254 64.85013,96.8635 65.125,96.96875 C 65.366706,97.062191 65.37085,97.267875 65.25,97.71875 L 64.15625,101.84375 C 63.988749,102.46795 63.87366,102.57778 63.75,102.6875 C 63.606099,102.81643 63.28234,102.96875 62.59375,102.96875 C 62.593749,102.96875 62.51001,102.96875 62.4375,102.96875 C 62.635931,102.22805 64.0625,96.90625 64.0625,96.90625 z M 36,98.5625 L 34.25,107.0625 L 32.9375,107.0625 L 36,98.5625 z M 16.3125,104.5625 L 16.5,104.5625 C 16.926799,104.5625 17.24183,104.60369 17.40625,104.75 C 17.556119,104.8823 17.61857,105.11957 17.5,105.5625 L 16,111.15625 C 15.92231,111.44443 15.81905,111.59576 15.65625,111.6875 C 15.49352,111.77978 15.2434,111.8125 14.78125,111.8125 C 14.69338,111.8125 14.57371,111.8125 14.375,111.8125 L 16.3125,104.5625 z"
       transform="translate(198.33016,-137.55938)"
       id="path3058"
       style="fill:url(#linearGradient5846);stroke:none" />
    <path
       d="M 50.28125,9.21875 C 50.06579,9.2187502 49.824173,9.2398337 49.59375,9.28125 C 49.363327,9.3226663 49.14368,9.372565 48.90625,9.46875 L 46.4375,9.46875 L 47.34375,11 C 47.295969,11.11758 47.25416,11.24226 47.21875,11.375 L 44.8125,20.34375 C 44.589201,21.17829 44.771856,21.70141 45.15625,22.03125 C 45.252348,22.11371 45.350668,22.192253 45.46875,22.25 C 45.822997,22.42324 46.281826,22.5 46.71875,22.5 C 47.901149,22.500001 49.33415,22.01283 49.78125,20.34375 L 52.1875,11.375 C 52.634031,9.7061897 51.46415,9.21875 50.28125,9.21875 z M 38.125,9.46875 L 39.03125,11 L 36.03125,22.25 L 37.9375,22.25 L 39.25,17.34375 L 40.03125,17.34375 C 41.501299,17.34375 42.56083,16.4774 43.03125,14.71875 L 43.75,11.9375 C 44.250341,10.07028 43.40898,9.46875 41.4375,9.46875 L 40.21875,9.46875 L 38.125,9.46875 z M 54.59375,9.46875 L 55.5,10.96875 L 52.46875,22.25 L 54.375,22.25 L 56,16.125 C 56.888271,16.088951 57.11592,16.38502 56.90625,17.15625 C 56.203609,19.741851 55.53125,22.25 55.53125,22.25 L 57.4375,22.25 C 57.437499,22.250001 57.88254,20.44751 58.84375,16.75 C 59.14392,15.595719 58.5,15.4375 58.5,15.4375 C 58.96318,15.257375 59.191419,15.080055 59.34375,14.8125 C 59.419916,14.678723 59.479256,14.522001 59.53125,14.34375 C 59.583244,14.165499 59.623982,13.956553 59.6875,13.71875 L 60.25,11.65625 C 60.69182,10.00477 59.92901,9.46875 58.40625,9.46875 L 56.6875,9.46875 L 54.59375,9.46875 z M 62.5625,9.46875 L 63.40625,11.125 L 64.34375,11.125 L 61.375,22.25 L 63.28125,22.25 L 66.25,11.125 L 67.90625,11.125 L 68.34375,9.46875 L 62.5625,9.46875 z M 70.15625,9.46875 L 71.0625,11 L 68.0625,22.25 L 72.375,22.25 L 72.8125,20.5625 L 70.40625,20.5625 L 73.375,9.46875 L 72.78125,9.46875 L 70.59375,9.46875 L 70.15625,9.46875 z M 78.03125,9.46875 L 78.90625,11 L 74.625,22.25 L 76.34375,22.25 L 77.6875,18.78125 L 79.03125,18.78125 L 78.46875,22.25 L 80.375,22.25 L 82.34375,9.46875 L 80.6875,9.46875 L 78.5,9.46875 L 78.03125,9.46875 z M 85.25,9.46875 L 86.15625,10.96875 L 83.125,22.25 L 84.6875,22.25 L 87.1875,12.96875 C 87.313418,12.43032 87.41357,11.86873 87.5625,11.3125 L 87.625,11.3125 C 87.38217,12.81994 87.11861,14.26409 87,15.84375 L 86.1875,22.25 L 89,22.25 L 92.40625,9.46875 L 90.84375,9.46875 L 89.125,15.96875 C 88.793359,17.20661 88.53717,18.44911 88.1875,19.6875 L 88,20.375 L 87.90625,20.375 C 88.389107,17.97057 88.76358,15.49403 88.96875,13.125 L 89.40625,9.46875 L 87.3125,9.46875 L 85.25,9.46875 z M 94.59375,9.46875 L 95.5,11 L 92.5,22.25 L 95.21875,22.25 C 96.688111,22.250001 97.7666,21.12679 98.09375,19.90625 L 100.125,12.34375 C 100.7259,10.10023 100.10013,9.46875 98.21875,9.46875 L 97.28125,9.46875 L 94.59375,9.46875 z M 49.875,10.75 C 50.251371,10.75 50.42263,10.88488 50.25,11.53125 L 47.9375,20.1875 C 47.763739,20.833651 47.50099,20.96875 47.125,20.96875 C 46.730829,20.968749 46.57596,20.83365 46.75,20.1875 L 49.0625,11.53125 C 49.2357,10.88488 49.48037,10.75 49.875,10.75 z M 40.96875,10.96875 L 41.28125,10.96875 C 41.9263,10.96875 42.01622,11.3393 41.78125,12.21875 L 40.96875,15.25 C 40.814201,15.82495 40.21236,15.8125 39.65625,15.8125 L 40.96875,10.96875 z M 57.40625,10.96875 L 57.84375,10.96875 C 58.273199,10.96875 58.50484,11.14045 58.375,11.625 L 57.71875,14.0625 C 57.593959,14.52835 57.35135,14.875 56.6875,14.875 L 56.34375,14.875 L 57.40625,10.96875 z M 97.4375,10.96875 L 97.875,10.96875 C 98.35955,10.96875 98.56466,11.11196 98.34375,11.9375 L 96.25,19.75 C 96.029089,20.5756 95.76523,20.71875 95.28125,20.71875 L 94.8125,20.71875 L 97.4375,10.96875 z M 80.21875,11.78125 L 80.34375,11.78125 L 79.3125,17.09375 L 78.3125,17.09375 L 80.21875,11.78125 z"
       transform="translate(198.33016,-137.55938)"
       id="path3192"
       style="fill:#ffffff;fill-opacity:1;fill-rule:nonzero;stroke:none" />
    <path
       d="M 72.96875,38.03125 L 70.65625,40.34375 C 76.339748,44.591539 80.03125,51.399338 80.03125,59.03125 C 80.031247,65.162925 77.63194,70.745675 73.75,74.90625 L 57.25,91.4375 L 58.40625,91.4375 L 73.375,79.71875 C 74.729131,78.62795 75.97683,77.394738 77.09375,76.0625 C 80.96497,71.446553 83.28125,65.516963 83.28125,59.03125 C 83.281254,58.232575 83.2572,57.436362 83.1875,56.65625 C 82.516344,49.093 78.64832,42.436763 72.96875,38.03125 z M 69.5,41.5 L 67.1875,43.8125 C 72.128431,47.2314 75.21875,52.741613 75.21875,59.03125 C 75.218753,63.9241 73.32948,68.348387 70.21875,71.65625 L 50.5,91.4375 L 51.75,91.4375 L 69.90625,76.40625 C 70.921989,75.588402 72.44314,74.124062 73.28125,73.125 C 76.536441,69.326898 78.5,64.419413 78.5,59.03125 C 78.499997,58.31025 78.44973,57.576312 78.375,56.875 C 77.74207,50.542427 74.39037,45.007113 69.5,41.5 z M 66,45 L 63.75,47.28125 C 67.947312,49.870926 70.4375,54.08385 70.4375,59.03125 C 70.437497,62.684713 68.99463,65.982387 66.65625,68.4375 L 43.71875,91.4375 L 45.125,91.4375 L 66.4375,73.09375 C 67.113723,72.549417 68.91058,70.884038 69.46875,70.21875 C 72.107869,67.239035 73.71875,63.322413 73.71875,59.03125 C 73.718754,58.388488 73.673,57.745825 73.59375,57.125 C 72.99903,52.021464 70.10173,47.609463 66,45 z M 62.5,48.5 L 60.28125,50.71875 C 63.735421,52.479874 65.65625,55.4258 65.65625,59.03125 C 65.656251,61.447563 64.69216,63.61745 63.125,65.21875 L 36.96875,91.4375 L 38.46875,91.4375 L 62.96875,69.78125 C 63.306011,69.507141 65.37688,67.614462 65.65625,67.28125 C 67.678162,65.121038 68.9375,62.225425 68.9375,59.03125 C 68.937501,58.46615 68.86669,57.884088 68.78125,57.34375 C 68.224167,53.469451 65.81252,50.211875 62.5,48.5 z M 59.09375,51.9375 L 56.84375,54.1875 C 59.425529,54.986751 60.875,56.768038 60.875,59.03125 C 60.875,60.208175 60.35732,61.250287 59.5625,62 L 30.1875,91.4375 L 31.8125,91.4375 L 59.5,66.46875 L 61.84375,64.34375 C 63.249029,63.000224 64.125,61.12615 64.125,59.03125 C 64.124999,58.544388 64.0905,58.054725 64,57.59375 C 63.481739,54.949549 61.29441,52.721025 59.09375,51.9375 z"
       transform="translate(198.33016,-137.55938)"
       id="path3240"
       style="fill:#f0352a;fill-opacity:1;fill-rule:nonzero;stroke:none" />
    <path
       d="M 257.421,-85.634758 L 255.16187,-83.372383 C 257.74365,-82.573133 259.2012,-80.806608 259.2012,-78.543396 C 259.2012,-77.366471 258.70261,-76.303246 257.90779,-75.553533 L 228.51824,-46.110883 L 230.15707,-46.110883 L 257.81785,-71.076071 L 260.18377,-73.209833 C 261.58905,-74.553358 262.46819,-76.448496 262.46819,-78.543396 C 262.46819,-79.030258 262.41985,-79.506983 262.32935,-79.967958 C 261.81109,-82.612158 259.62166,-84.851233 257.421,-85.634758 z"
       id="path3242"
       style="fill:none;stroke:#f0352a;stroke-width:0.24749114;stroke-linecap:butt;stroke-linejoin:miter;stroke-miterlimit:4;stroke-dasharray:none;stroke-opacity:1" />
    <path
       d="M 260.84201,-89.060471 L 258.61661,-86.831621 C 262.07078,-85.070496 263.9887,-82.148846 263.9887,-78.543396 C 263.9887,-76.127083 263.01906,-73.934221 261.4519,-72.332921 L 235.2869,-46.110883 L 236.8017,-46.110883 L 261.2872,-67.768208 C 261.62446,-68.042321 263.71046,-69.948121 263.98983,-70.281333 C 266.01174,-72.441546 267.25569,-75.349221 267.25569,-78.543396 C 267.25569,-79.108496 267.21016,-79.663458 267.12472,-80.203796 C 266.56764,-84.078096 264.15453,-87.348596 260.84201,-89.060471 z"
       id="path3246"
       style="fill:none;stroke:#f0352a;stroke-width:0.24749114;stroke-linecap:butt;stroke-linejoin:miter;stroke-miterlimit:4;stroke-dasharray:none;stroke-opacity:1" />
    <path
       d="M 264.33103,-92.553821 L 262.07019,-90.290046 C 266.2675,-87.700371 268.77505,-83.490796 268.77505,-78.543396 C 268.77505,-74.889933 267.33551,-71.565721 264.99713,-69.110608 L 242.055,-46.110883 L 243.44601,-46.110883 L 264.75599,-64.463696 C 265.43221,-65.008033 267.23771,-66.685858 267.79588,-67.351146 C 270.435,-70.330858 272.04207,-74.252233 272.04207,-78.543396 C 272.04207,-79.186158 271.99991,-79.819371 271.92066,-80.440196 C 271.32594,-85.543733 268.43276,-89.944358 264.33103,-92.553821 z"
       id="path3250"
       style="fill:none;stroke:#f0352a;stroke-width:0.24749114;stroke-linecap:butt;stroke-linejoin:miter;stroke-miterlimit:4;stroke-dasharray:none;stroke-opacity:1" />
    <path
       d="M 267.81949,-96.046921 L 265.52439,-93.749096 C 270.46532,-90.330196 273.56199,-84.833033 273.56199,-78.543396 C 273.56199,-73.650546 271.65253,-69.196721 268.5418,-65.888858 L 248.82338,-46.110883 L 250.09091,-46.110883 L 268.22421,-61.156996 C 269.23995,-61.974846 270.76439,-63.423021 271.6025,-64.422083 C 274.85769,-68.220183 276.82957,-73.155233 276.82957,-78.543396 C 276.82957,-79.264396 276.79019,-79.975246 276.71546,-80.676558 C 276.08253,-87.009133 272.70986,-92.539808 267.81949,-96.046921 z"
       id="path3254"
       style="fill:none;stroke:#f0352a;stroke-width:0.24749114;stroke-linecap:butt;stroke-linejoin:miter;stroke-miterlimit:4;stroke-dasharray:none;stroke-opacity:1" />
    <path
       d="M 281.5114,-80.911858 C 280.84024,-88.475108 276.98809,-95.135008 271.30852,-99.540521 L 268.97913,-97.208083 C 274.66263,-92.960296 278.34952,-86.175308 278.34952,-78.543396 C 278.34952,-72.411721 275.96842,-66.828258 272.08648,-62.667683 L 255.59133,-46.110883 L 256.73578,-46.110883 L 271.693,-57.850258 C 273.04713,-58.941058 274.29164,-60.160183 275.40856,-61.492421 C 279.27978,-66.108371 281.61651,-72.057683 281.61651,-78.543396 C 281.61651,-79.342071 281.5811,-80.131746 281.5114,-80.911858 z"
       id="path3258"
       style="fill:none;stroke:#f0352a;stroke-width:0.24749114;stroke-linecap:butt;stroke-linejoin:miter;stroke-miterlimit:4;stroke-dasharray:none;stroke-opacity:1" />
    <path
       d="M 54.53125,26.125 L 39.5625,37.875 C 38.209371,38.965239 36.99132,40.168175 35.875,41.5 C 32.002859,46.115488 29.65625,52.076512 29.65625,58.5625 C 29.65625,59.360062 29.68086,60.156837 29.75,60.9375 C 30.421131,68.499411 34.28893,75.157638 39.96875,79.5625 L 42.28125,77.21875 C 36.597588,72.972063 32.90625,66.194162 32.90625,58.5625 C 32.906251,52.431575 35.30575,46.84895 39.1875,42.6875 L 55.6875,26.125 L 54.53125,26.125 z M 61.1875,26.125 L 43.03125,41.1875 C 42.015741,42.005702 40.49395,43.4396 39.65625,44.4375 C 36.400781,48.235098 34.4375,53.174187 34.4375,58.5625 C 34.4375,59.283512 34.48812,59.986188 34.5625,60.6875 C 35.19544,67.020113 38.54623,72.5548 43.4375,76.0625 L 45.75,73.78125 C 40.809542,70.363596 37.71875,64.852337 37.71875,58.5625 C 37.718749,53.66965 39.60791,49.214087 42.71875,45.90625 L 62.4375,26.125 L 61.1875,26.125 z M 67.8125,26.125 L 46.5,44.46875 C 45.82287,45.013749 44.02733,46.70965 43.46875,47.375 C 40.82948,50.354961 39.21875,54.271587 39.21875,58.5625 C 39.218751,59.205275 39.26386,59.847925 39.34375,60.46875 C 39.939079,65.572664 42.83528,69.952038 46.9375,72.5625 L 49.1875,70.3125 C 44.989219,67.723359 42.5,63.509937 42.5,58.5625 C 42.5,54.90805 43.94255,51.5803 46.28125,49.125 L 69.21875,26.125 L 67.8125,26.125 z M 74.46875,26.125 L 49.96875,47.78125 C 49.630642,48.053888 47.5598,49.980013 47.28125,50.3125 C 45.25786,52.474626 44,55.368675 44,58.5625 C 43.999998,59.1276 44.07088,59.677287 44.15625,60.21875 C 44.713119,64.092837 47.12551,67.382125 50.4375,69.09375 L 52.65625,66.84375 C 49.201511,65.082599 47.28125,62.168075 47.28125,58.5625 C 47.281252,56.146412 48.24583,53.945988 49.8125,52.34375 L 75.96875,26.125 L 74.46875,26.125 z M 81.125,26.125 L 53.4375,51.09375 L 51.09375,53.21875 C 49.687099,54.562925 48.8125,56.467012 48.8125,58.5625 C 48.812498,59.049925 48.84809,59.539625 48.9375,60 C 49.45686,62.644298 51.64331,64.87105 53.84375,65.65625 L 56.09375,63.40625 C 53.51219,62.607013 52.0625,60.824587 52.0625,58.5625 C 52.062498,57.385587 52.57933,56.312837 53.375,55.5625 L 82.75,26.125 L 81.125,26.125 z"
       transform="translate(198.33016,-137.55938)"
       id="path3260"
       style="fill:#c9cfd2;fill-opacity:1;fill-rule:nonzero;stroke:none" />
  </g>
</svg>
